<svg xmlns="http://www.w3.org/2000/svg" xmlns:xlink="http://www.w3.org/1999/xlink" xmlns:lucid="lucid" width="1760" height="1360"><g transform="translate(0 0)" lucid:page-tab-id="0_0"><path d="M0 0h1760v1360H0z" fill="#fff"/><path d="M848 160c17.67 0 32 17.9 32 40s-14.33 40-32 40h-96c-17.67 0-32-17.9-32-40s14.33-40 32-40z" stroke="#000" stroke-opacity="0" fill="#ff741d"/><use xlink:href="#a" transform="matrix(1,0,0,1,725,165) translate(56.025 38.6)"/><path d="M440 528a8 8 0 0 1 8-8h144a8 8 0 0 1 8 8v53.5a8 8 0 0 1-8 8H448a8 8 0 0 1-8-8z" stroke="#000" stroke-opacity="0" stroke-width="2" fill="#ff8839"/><use xlink:href="#b" transform="matrix(1,0,0,1,445,525) translate(14.024999999999999 22.799999999999997)"/><use xlink:href="#c" transform="matrix(1,0,0,1,445,525) translate(83.975 22.799999999999997)"/><use xlink:href="#d" transform="matrix(1,0,0,1,445,525) translate(55.525 44.4)"/><path d="M453.15 78.58a8 8 0 0 1 8-8h836.75a8 8 0 0 1 8 8v25.15a8 8 0 0 1-8 8H461.15a8 8 0 0 1-8-8z" stroke="#000" stroke-opacity="0" stroke-width="2" fill="#fff" fill-opacity="0"/><use xlink:href="#e" transform="matrix(1,0,0,1,457.14655278534315,74.57761197839864) translate(296.44703703703703 23.657777777777778)"/><use xlink:href="#f" transform="matrix(1,0,0,1,457.14655278534315,74.57761197839864) translate(431.6371604938272 23.657777777777778)"/><path d="M709.44 110.4h347.9M709.47 110.4h-1.03M1057.3 110.4h1.03" stroke="#a9afb8" stroke-width="2" fill="none"/><path d="M453.15 119.73a8 8 0 0 1 8-8h837.7a8 8 0 0 1 8 8v2.85a8 8 0 0 1-8 8h-837.7a8 8 0 0 1-8-8z" stroke="#000" stroke-opacity="0" stroke-width="2" fill="#fff" fill-opacity="0"/><use xlink:href="#g" transform="matrix(1,0,0,1,457.1465527853436,115.73283593529744) translate(290.17296296296297 14.917037037037037)"/><use xlink:href="#h" transform="matrix(1,0,0,1,457.1465527853436,115.73283593529744) translate(350.50835390946503 14.917037037037037)"/><use xlink:href="#i" transform="matrix(1,0,0,1,457.1465527853436,115.73283593529744) translate(415.85753086419754 14.917037037037037)"/><use xlink:href="#j" transform="matrix(1,0,0,1,457.1465527853436,115.73283593529744) translate(428.30701646090534 14.917037037037037)"/><use xlink:href="#k" transform="matrix(1,0,0,1,457.1465527853436,115.73283593529744) translate(502.96144032921814 14.917037037037037)"/><use xlink:href="#l" transform="matrix(1,0,0,1,457.1465527853436,115.73283593529744) translate(528.4552674897119 14.917037037037037)"/><path d="M80 146.58a16 16 0 0 1 16-16h208a16 16 0 0 1 16 16v148a16 16 0 0 1-16 16H96a16 16 0 0 1-16-16z" stroke="#dfe3e8" stroke-width="2" fill="#fff"/><path d="M136 204.18c0 6.63-5.37 12-12 12s-12-5.37-12-12 5.37-12 12-12 12 5.37 12 12z" stroke="#000" stroke-opacity=".25" fill="#7ab648"/><path d="M136 236.18c0 6.63-5.37 12-12 12s-12-5.37-12-12 5.37-12 12-12 12 5.37 12 12z" stroke="#000" stroke-opacity=".25" fill="#c92d39"/><use xlink:href="#m" transform="matrix(1,0,0,1,112,154.57761197863147) translate(33.074999999999996 14.6)"/><use xlink:href="#n" transform="matrix(1,0,0,1,112,154.57761197863147) translate(109.975 14.6)"/><use xlink:href="#o" transform="matrix(1,0,0,1,148,192.17761197863146) translate(0 14.8)"/><use xlink:href="#p" transform="matrix(1,0,0,1,148,224.17761197863146) translate(0 14.8)"/><path d="M513.6 315.38a10.67 10.67 0 0 1 12.8 0l67.2 50.4a6 6 0 0 1 0 9.6l-67.2 50.4a10.67 10.67 0 0 1-12.8 0l-67.2-50.4a6 6 0 0 1 0-9.6z" stroke="#fe5900" stroke-width="4" fill="#fff"/><use xlink:href="#q" transform="matrix(1,0,0,1,445,315.57761197863147) translate(25.525 58.6)"/><use xlink:href="#r" transform="matrix(1,0,0,1,445,315.57761197863147) translate(84.475 58.6)"/><path d="M200 472.8a8 8 0 0 1 8-8h144a8 8 0 0 1 8 8v53.5a8 8 0 0 1-8 8H208a8 8 0 0 1-8-8z" stroke="#000" stroke-opacity="0" stroke-width="2" fill="#ff8839"/><use xlink:href="#b" transform="matrix(1,0,0,1,205,469.80000000000007) translate(2.0250000000000057 33.6)"/><use xlink:href="#s" transform="matrix(1,0,0,1,205,469.80000000000007) translate(71.97500000000001 33.6)"/><use xlink:href="#t" transform="matrix(1,0,0,1,205,469.80000000000007) translate(107.97500000000001 33.6)"/><path d="M720 337.34a9.06 9.06 0 0 1 7.94-9l144.12-17.93a7.07 7.07 0 0 1 7.94 7.02v104a8 8 0 0 1-8 8H728a8 8 0 0 1-8-8z" stroke="#3a414a" fill="#cfe4ff"/><use xlink:href="#u" transform="matrix(1,0,0,1,725,334.42238802136853) translate(8.099999999999994 48.6)"/><use xlink:href="#v" transform="matrix(1,0,0,1,725,334.42238802136853) translate(101.9 48.6)"/><path d="M800 240.5v62.04" stroke="#3a414a" fill="none"/><path d="M800.5 240.5h-1v-.5h1z" stroke="#3a414a" stroke-width=".05" fill="#3a414a"/><path d="M800 317.3l-4.64-14.26h9.28z" stroke="#3a414a" fill="#3a414a"/><path d="M719.04 369.65h-60.3a.02.02 0 0 1-.02.03h-44.4" stroke="#3a414a" fill="none"/><path d="M719.54 370.15h-.52v-1h.52z" stroke="#3a414a" stroke-width=".05" fill="#3a414a"/><path d="M599.54 369.68l14.27-4.64v9.27z" stroke="#3a414a" fill="#3a414a"/><path d="M299.2 371.58h-7.16l-1.76.14-1.68.4-1.6.66-1.46.9-1.32 1.12-1.12 1.3-.9 1.5-.66 1.58-.4 1.64-.14 65.53h-2l.15-65.77.48-2.02.78-1.9 1.08-1.73 1.33-1.55 1.56-1.32 1.74-1.07 1.88-.8 2-.47 1.98-.15h7.23zm141.8 0H328.53v-2H441z" stroke="#7ab648" stroke-width=".05" fill="#7ab648"/><path d="M442 370.58l.08 1h-1.1v-2h1.1z" fill="#7ab648"/><path d="M442.02 370.58l.1 1.02h-1.18v-2.05h1.17zm-1.03-.98v1.95h1.06l-.1-.97.1-.98z" stroke="#7ab648" stroke-width=".05" fill="#7ab648"/><path d="M280 461.6l-4.64-14.25h9.28z" fill="#7ab648"/><path d="M280 464.85l-6-18.5h12zm-3.26-16.5l3.26 10.03 3.26-10.03z" stroke="#7ab648" stroke-width=".05" fill="#7ab648"/><use xlink:href="#w" transform="matrix(1,0,0,1,299.18507962509415,359.77761197863146) translate(0.005000000000000782 14.4)"/><path d="M521 501.55h-2v-15.77h2zm0-37.37h-2v-33.26h2z" stroke="#c92d39" stroke-width=".05" fill="#c92d39"/><path d="M520 429.92l1-.07v1.1h-2v-1.1z" fill="#c92d39"/><path d="M520 429.9l1.02-.08v1.15H519v-1.15zm-.98 1.02H521v-1.04l-.98.06-.98-.06z" stroke="#c92d39" stroke-width=".05" fill="#c92d39"/><path d="M520 516.8l-4.64-14.25h9.28z" fill="#c92d39"/><path d="M520 520.05l-6-18.5h12zm-3.26-16.5l3.26 10.03 3.26-10.03z" stroke="#c92d39" stroke-width=".05" fill="#c92d39"/><use xlink:href="#x" transform="matrix(1,0,0,1,508.525,464.18196860275503) translate(0.005000000000000782 14.4)"/><path d="M520 589.95v3.1a12 12 0 0 1-12 12H380.78" stroke="#3a414a" fill="none"/><path d="M520.5 589.96h-1v-.5h1z" stroke="#3a414a" stroke-width=".05" fill="#3a414a"/><path d="M380.08 619.05l-3.92-14.48 9.26.46z" stroke="#3a414a" fill="#3a414a"/><path d="M373.6 624.8a10.67 10.67 0 0 1 12.8 0l67.2 50.4a6 6 0 0 1 0 9.6l-67.2 50.4a10.67 10.67 0 0 1-12.8 0l-67.2-50.4a6 6 0 0 1 0-9.6z" stroke="#fe5900" stroke-width="4" fill="#fff"/><use xlink:href="#y" transform="matrix(1,0,0,1,305,625) translate(12.25 58.6)"/><use xlink:href="#z" transform="matrix(1,0,0,1,305,625) translate(55.8 58.6)"/><use xlink:href="#A" transform="matrix(1,0,0,1,305,625) translate(91.8 58.6)"/><path d="M540 654a8 8 0 0 1 8-8h144a8 8 0 0 1 8 8v52a8 8 0 0 1-8 8H548a8 8 0 0 1-8-8z" stroke="#000" stroke-opacity="0" stroke-width="2" fill="#ff8839"/><use xlink:href="#B" transform="matrix(1,0,0,1,552,657.9885659508311) translate(24.525 15.299999999999999)"/><use xlink:href="#C" transform="matrix(1,0,0,1,552,657.9885659508311) translate(80.475 15.299999999999999)"/><use xlink:href="#D" transform="matrix(1,0,0,1,552,657.9885659508311) translate(45.025 36.9)"/><path d="M184.44 815.66A4.28 4.28 0 0 1 188 809h144a4.28 4.28 0 0 1 3.56 6.66l-71.12 106.68a5.33 5.33 0 0 1-8.88 0z" stroke="#3a414a" fill="#b8f5ed"/><use xlink:href="#E" transform="matrix(1,0,0,1,185,813.9990620547949) translate(49.55 58.6)"/><path d="M280 534.75V659.6a12 12 0 0 1-12 12h-70.04a12 12 0 0 0-12 12V792.6" stroke="#3a414a" fill="none"/><path d="M280.5 534.76h-1v-.5h1z" stroke="#3a414a" stroke-width=".05" fill="#3a414a"/><path d="M185.96 807.34l-4.64-14.26h9.27z" stroke="#3a414a" fill="#3a414a"/><path d="M341.84 775.46l-.2.05-1.6.67-1.48.9-1.3 1.13-1.13 1.3-.9 1.48-.66 1.6-.4 1.65-.15 5.9-2-.05.16-6.12.48-2 .78-1.9 1.07-1.73 1.33-1.55 1.55-1.33 1.74-1.06 1.9-.8.82-.2zM381 762l-.16 2-.47 2-.78 1.88-1.08 1.74-1.33 1.55-1.56 1.32-1.74 1.06-1.88.78-.83.2v-2.06l.2-.05 1.6-.66 1.46-.9 1.32-1.12 1.12-1.3.9-1.5.66-1.58.4-1.68.14-1.77v-21.6h2z" stroke="#7ab648" stroke-width=".05" fill="#7ab648"/><path d="M380 739.34l1-.07v1.1h-2v-1.1z" fill="#7ab648"/><path d="M380 739.3l1.02-.05v1.14h-2.04v-1.15zm-.98 1.04h1.96v-1.04l-.98.06-.98-.06z" stroke="#7ab648" stroke-width=".05" fill="#7ab648"/><path d="M333.02 805.37l-4.63-14.26h9.26z" fill="#7ab648"/><path d="M333.02 808.6l-6-18.5h12.02zm-3.25-16.5l3.25 10.04 3.26-10.03z" stroke="#7ab648" stroke-width=".05" fill="#7ab648"/><use xlink:href="#w" transform="matrix(1,0,0,1,341.83741918271943,763.1723249748757) translate(0.005000000000000782 14.4)"/><path d="M487.55 681H459v-2h28.55zm34-.4H510.5v-2h11.04z" stroke="#c92d39" stroke-width=".05" fill="#c92d39"/><path d="M459.03 681h-1.1l.08-1-.08-1h1.1z" fill="#c92d39"/><path d="M459.06 681.02h-1.17l.08-1.02-.1-1.02h1.18zm-1.12-2l.1.98-.1.98H459V679z" stroke="#c92d39" stroke-width=".05" fill="#c92d39"/><path d="M536.8 679.6l-14.25 4.63v-9.27z" fill="#c92d39"/><path d="M540.05 679.6l-18.5 6v-12.02zm-16.5 3.25l10.03-3.26-10.03-3.27z" stroke="#c92d39" stroke-width=".05" fill="#c92d39"/><use xlink:href="#x" transform="matrix(1,0,0,1,487.5529825321932,668.9961283726118) translate(0.005000000000000782 14.4)"/><path d="M928.24 733.46A13.33 13.33 0 0 1 940 726.4h104c8.84 0 16 26.86 16 60 0 33.13-7.16 60-16 60H940a13.33 13.33 0 0 1-11.76-7.06l-24.48-45.88a15 15 0 0 1 0-14.12z" stroke="#3a414a" fill="#e3fae3"/><use xlink:href="#F" transform="matrix(1,0,0,1,905,731.3963092056075) translate(14.099999999999994 47.8)"/><use xlink:href="#G" transform="matrix(1,0,0,1,905,731.3963092056075) translate(77.05 47.8)"/><use xlink:href="#r" transform="matrix(1,0,0,1,905,731.3963092056075) translate(55 69.4)"/><path d="M333.6 1038.8a10.67 10.67 0 0 1 12.8 0l67.2 50.4a6 6 0 0 1 0 9.6l-67.2 50.4a10.67 10.67 0 0 1-12.8 0l-67.2-50.4a6 6 0 0 1 0-9.6z" stroke="#fe5900" stroke-width="4" fill="#fff"/><use xlink:href="#H" transform="matrix(1,0,0,1,265,1039.0114340491689) translate(30.049999999999997 58.6)"/><use xlink:href="#I" transform="matrix(1,0,0,1,265,1039.0114340491689) translate(49.05 58.6)"/><path d="M620 761.83a8 8 0 0 1 8-8h144a8 8 0 0 1 8 8v52.03a8 8 0 0 1-8 8H628a8 8 0 0 1-8-8z" stroke="#000" stroke-opacity="0" stroke-width="2" fill="#ff8839"/><use xlink:href="#J" transform="matrix(1,0,0,1,632,765.832395388128) translate(32.074999999999996 15.299999999999999)"/><use xlink:href="#K" transform="matrix(1,0,0,1,632,765.832395388128) translate(36.074999999999996 36.9)"/><path d="M560 1162a8 8 0 0 1 8-8h144a8 8 0 0 1 8 8v52.03a8 8 0 0 1-8 8H568a8 8 0 0 1-8-8z" stroke="#000" stroke-opacity="0" stroke-width="2" fill="#ff8839"/><use xlink:href="#L" transform="matrix(1,0,0,1,572,1166.0114340491689) translate(8.574999999999996 26.1)"/><use xlink:href="#M" transform="matrix(1,0,0,1,572,1166.0114340491689) translate(56.525 26.1)"/><path d="M541.55 1187.02v2l-94.2-.07v-2zM341 1175.98l.14 1.76.4 1.68.66 1.6.9 1.47 1.12 1.3 1.32 1.12 1.47.9 1.6.66 1.64.4 67.77.05v2l-68-.05-2.02-.5-1.88-.77-1.74-1.06-1.55-1.32-1.32-1.55-1.07-1.74-.77-1.9-.47-1.97-.16-2v-21.7h2z" stroke="#7ab648" stroke-width=".05" fill="#7ab648"/><path d="M340 1153.35l1-.07v1.1h-2v-1.1z" fill="#7ab648"/><path d="M340 1153.32l1.02-.06v1.14h-2.04v-1.14zm-.98 1.03h1.96v-1.04l-.98.07-.98-.06z" stroke="#7ab648" stroke-width=".05" fill="#7ab648"/><path d="M556.8 1188.02l-14.25 4.64v-9.27z" fill="#7ab648"/><path d="M560.05 1188.02l-18.5 6v-12zm-16.5 3.26l10.03-3.26-10.03-3.26z" stroke="#7ab648" stroke-width=".05" fill="#7ab648"/><use xlink:href="#w" transform="matrix(1,0,0,1,418.0120789976832,1177.2228680983378) translate(0.005000000000000782 14.4)"/><path d="M863.6 1132.82a10.67 10.67 0 0 1 12.8 0l67.2 50.4a6 6 0 0 1 0 9.6l-67.2 50.4a10.67 10.67 0 0 1-12.8 0l-67.2-50.4a6 6 0 0 1 0-9.6z" stroke="#fe5900" stroke-width="4" fill="#fff"/><use xlink:href="#H" transform="matrix(1,0,0,1,795,1133.0228680983378) translate(31 58.6)"/><use xlink:href="#N" transform="matrix(1,0,0,1,795,1133.0228680983378) translate(50 58.6)"/><use xlink:href="#r" transform="matrix(1,0,0,1,795,1133.0228680983378) translate(79 58.6)"/><path d="M1020 1162a8 8 0 0 1 8-8h144a8 8 0 0 1 8 8v52.03a8 8 0 0 1-8 8h-144a8 8 0 0 1-8-8z" stroke="#000" stroke-opacity="0" stroke-width="2" fill="#ff8839"/><use xlink:href="#O" transform="matrix(1,0,0,1,1032,1166.0114340491689) translate(19.9 15.299999999999999)"/><use xlink:href="#P" transform="matrix(1,0,0,1,1032,1166.0114340491689) translate(60.15 15.299999999999999)"/><use xlink:href="#Q" transform="matrix(1,0,0,1,1032,1166.0114340491689) translate(86.1 15.299999999999999)"/><use xlink:href="#R" transform="matrix(1,0,0,1,1032,1166.0114340491689) translate(48.525 36.9)"/><path d="M1020 1048a8 8 0 0 1 8-8h144a8 8 0 0 1 8 8v52.02a8 8 0 0 1-8 8h-144a8 8 0 0 1-8-8z" stroke="#000" stroke-opacity="0" stroke-width="2" fill="#ff8839"/><use xlink:href="#O" transform="matrix(1,0,0,1,1032,1052) translate(21.924999999999997 15.299999999999999)"/><use xlink:href="#P" transform="matrix(1,0,0,1,1032,1052) translate(62.175 15.299999999999999)"/><use xlink:href="#S" transform="matrix(1,0,0,1,1032,1052) translate(88.125 15.299999999999999)"/><use xlink:href="#R" transform="matrix(1,0,0,1,1032,1052) translate(48.525 36.9)"/><path d="M260 925.72v42.23a12 12 0 0 0 12 12h56a12 12 0 0 1 12 12v26.34" stroke="#3a414a" fill="none"/><path d="M260 925.22l.5-.05v.56h-1v-.56z" stroke="#3a414a" stroke-width=".05" fill="#3a414a"/><path d="M340 1033.06l-4.64-14.27h9.28z" stroke="#3a414a" fill="#3a414a"/><path d="M969.35 1189.02H949v-2h20.35zm32.2 0h-2.85v-2h2.85z" stroke="#7ab648" stroke-width=".05" fill="#7ab648"/><path d="M949.03 1189.02h-1.1l.08-1-.08-1h1.1z" fill="#7ab648"/><path d="M949.06 1189.05h-1.17l.08-1.03-.1-1.02h1.18zm-1.12-2l.1.97-.1.98H949v-1.95z" stroke="#7ab648" stroke-width=".05" fill="#7ab648"/><path d="M1016.8 1188.02l-14.25 4.64v-9.27z" fill="#7ab648"/><path d="M1020.05 1188.02l-18.5 6v-12zm-16.5 3.26l10.03-3.26-10.03-3.26z" stroke="#7ab648" stroke-width=".05" fill="#7ab648"/><use xlink:href="#w" transform="matrix(1,0,0,1,969.35335977305,1177.2228680983378) translate(0.005000000000000782 14.4)"/><path d="M906.2 1075.13l-25.96.03-1.64.4-1.6.65-1.46.9-1.32 1.14-1.12 1.3-.9 1.48-.66 1.6-.4 1.67-.14 1.75v41.64h-2v-41.73l.16-2 .47-1.98.78-1.9 1.08-1.73 1.33-1.55 1.56-1.33 1.74-1.07 1.88-.8 2.02-.47 26.2-.03zm95.35-.12l-72.4.1v-2l72.4-.1z" stroke="#c92d39" stroke-width=".05" fill="#c92d39"/><path d="M871 1128.75l-1-.06-1 .05v-1.1h2z" fill="#c92d39"/><path d="M871.02 1128.78l-1.02-.07-1.02.08v-1.15H871zm-2-1.1v1.04l.98-.06.98.06v-1.04z" stroke="#c92d39" stroke-width=".05" fill="#c92d39"/><path d="M1016.8 1074l-14.25 4.65v-9.27z" fill="#c92d39"/><path d="M1020.05 1074l-18.5 6.02V1068zm-16.5 3.27l10.03-3.26-10.03-3.25z" stroke="#c92d39" stroke-width=".05" fill="#c92d39"/><use xlink:href="#x" transform="matrix(1,0,0,1,906.2120789976831,1063.211434049169) translate(0.005000000000000782 14.4)"/><path d="M1246.66 1215.56a4.28 4.28 0 0 1-6.66-3.56v-144a4.28 4.28 0 0 1 6.66-3.56l106.68 71.12a5.33 5.33 0 0 1 0 8.88z" stroke="#3a414a" fill="#b8f5ed"/><use xlink:href="#E" transform="matrix(6.123233995736766e-17,-1,1,6.123233995736766e-17,1245,1215) translate(49.55 58.6)"/><path d="M1180.45 1074h17.3a12 12 0 0 1 12 12v42a12 12 0 0 0 12 12h1.42" stroke="#3a414a" fill="none"/><path d="M1180.46 1074.5h-.5v-1h.5z" stroke="#3a414a" stroke-width=".05" fill="#3a414a"/><path d="M1237.93 1140l-14.26 4.64v-9.28z" stroke="#3a414a" fill="#3a414a"/><path d="M1180.45 1188.02h17.3a12 12 0 0 0 12-12v-23.62a12 12 0 0 1 12-12h1.42" stroke="#3a414a" fill="none"/><path d="M1180.46 1188.52h-.5v-1h.5z" stroke="#3a414a" stroke-width=".05" fill="#3a414a"/><path d="M1237.93 1140.4l-14.26 4.64v-9.27z" stroke="#3a414a" fill="#3a414a"/><path d="M1420 1114a8 8 0 0 1 8-8h144a8 8 0 0 1 8 8v52a8 8 0 0 1-8 8h-144a8 8 0 0 1-8-8z" stroke="#000" stroke-opacity="0" stroke-width="2" fill="#ff8839"/><use xlink:href="#T" transform="matrix(1,0,0,1,1432,1117.9885659508311) translate(1.625 26.1)"/><use xlink:href="#U" transform="matrix(1,0,0,1,1432,1117.9885659508311) translate(81.47500000000001 26.1)"/><path d="M1356.72 1140h46.94" stroke="#3a414a" fill="none"/><path d="M1356.73 1140.5h-.56l.05-.5-.05-.5h.56z" stroke="#3a414a" stroke-width=".05" fill="#3a414a"/><path d="M1418.43 1140l-14.27 4.64v-9.28z" stroke="#3a414a" fill="#3a414a"/><path d="M473.6 841.3a10.67 10.67 0 0 1 12.8 0l67.2 50.4a6 6 0 0 1 0 9.6l-67.2 50.4a10.67 10.67 0 0 1-12.8 0l-67.2-50.4a6 6 0 0 1 0-9.6z" stroke="#fe5900" stroke-width="4" fill="#fff"/><use xlink:href="#H" transform="matrix(1,0,0,1,405,841.4990620548723) translate(33.574999999999996 58.6)"/><use xlink:href="#V" transform="matrix(1,0,0,1,405,841.4990620548723) translate(52.574999999999996 58.6)"/><path d="M480.85 1084l-.48 2.03-.78 1.88-1.08 1.75-1.33 1.56-1.56 1.33-1.74 1.07-1.88.78-2 .47-1.98.16H419v-2h48.96l1.76-.13 1.68-.4 1.6-.66 1.46-.9 1.32-1.1 1.12-1.32.9-1.48.66-1.6.4-1.63.02-17.05h2zm.15-109.66l-.1 70.78h-2l.1-70.78z" stroke="#c92d39" stroke-width=".05" fill="#c92d39"/><path d="M419.03 1095h-1.1l.08-1-.08-1h1.1z" fill="#c92d39"/><path d="M419.06 1095.04h-1.17l.08-1.03-.1-1h1.18zm-1.12-2l.1.97-.1 1H419v-1.96z" stroke="#c92d39" stroke-width=".05" fill="#c92d39"/><path d="M484.64 973.34h-9.28l4.64-14.27z" fill="#c92d39"/><path d="M486 974.34h-12l6-18.5zm-9.26-2h6.52L480 962.3z" stroke="#c92d39" stroke-width=".05" fill="#c92d39"/><use xlink:href="#x" transform="matrix(1,0,0,1,468.525,1045.1196843012383) translate(0.005000000000000782 14.4)"/><path d="M505.92 779.45l-15.68.02-1.64.4-1.6.65-1.46.9-1.32 1.12-1.12 1.32-.9 1.47-.66 1.6-.4 1.67-.14 1.76v45.8h-2v-45.88l.16-2 .47-1.98.78-1.88 1.08-1.74 1.33-1.55 1.56-1.33 1.74-1.07 1.88-.78 2.02-.48 15.92-.02zm95.6-.13l-66.25.1v-2l66.26-.1z" stroke="#7ab648" stroke-width=".05" fill="#7ab648"/><path d="M481 837.23l-1-.07-1 .07v-1.1h2z" fill="#7ab648"/><path d="M481.02 837.25l-1.02-.06-1.02.05v-1.14h2.04zm-2-1.1v1.05l.98-.06.98.06v-1.04z" stroke="#7ab648" stroke-width=".05" fill="#7ab648"/><path d="M616.8 778.32l-14.27 4.64v-9.27z" fill="#7ab648"/><path d="M620.03 778.32l-18.5 6v-12zm-16.5 3.26l10.03-3.26-10.03-3.26z" stroke="#7ab648" stroke-width=".05" fill="#7ab648"/><use xlink:href="#w" transform="matrix(1,0,0,1,505.9197673824437,767.5206263605978) translate(0.005000000000000782 14.4)"/><path d="M620 870.5a8 8 0 0 1 8-8h144a8 8 0 0 1 8 8v52a8 8 0 0 1-8 8H628a8 8 0 0 1-8-8z" stroke="#000" stroke-opacity="0" stroke-width="2" fill="#ff8839"/><use xlink:href="#W" transform="matrix(1,0,0,1,632,874.4876280057034) translate(10.049999999999997 15.299999999999999)"/><use xlink:href="#X" transform="matrix(1,0,0,1,632,874.4876280057034) translate(80 15.299999999999999)"/><use xlink:href="#Y" transform="matrix(1,0,0,1,632,874.4876280057034) translate(50.025 36.9)"/><path d="M577.55 897.5H559v-2h18.55zm24 0h-1.05v-2h1.05z" stroke="#c92d39" stroke-width=".05" fill="#c92d39"/><path d="M559.03 897.5h-1.1l.08-1-.08-1h1.1z" fill="#c92d39"/><path d="M559.06 897.52h-1.17l.08-1.02-.1-1.03h1.18zm-1.12-2l.1.98-.1.97H559v-1.95z" stroke="#c92d39" stroke-width=".05" fill="#c92d39"/><path d="M616.8 896.5l-14.25 4.63v-9.27z" fill="#c92d39"/><path d="M620.05 896.5l-18.5 6v-12zm-16.5 3.26l10.03-3.26-10.03-3.26z" stroke="#c92d39" stroke-width=".05" fill="#c92d39"/><use xlink:href="#x" transform="matrix(1,0,0,1,577.5533597730499,885.6990620548723) translate(0.005000000000000782 14.4)"/><path d="M780.45 787.84h27.5a12 12 0 0 0 12-12v-77.9a12 12 0 0 1 12-12H968a12 12 0 0 1 12 12v11.62" stroke="#3a414a" fill="none"/><path d="M780.46 788.34h-.5v-1h.5z" stroke="#3a414a" stroke-width=".05" fill="#3a414a"/><path d="M980 724.33l-4.64-14.27h9.28z" stroke="#3a414a" fill="#3a414a"/><path d="M980.5 863.28l-.15 127.13-.46 1.94-.76 1.8-1.03 1.7-1.26 1.48-1.5 1.27-1.66 1.02-1.82.75-1.9.46-1.94.15-317.84.15-1.73.4-1.67.7-1.54.95-1.37 1.17-1.17 1.37-.95 1.54-.7 1.67-.4 1.75-.15 1.82v141.06h-1v-141.1l.15-1.94.46-1.9.76-1.82 1.03-1.67 1.26-1.5 1.5-1.27 1.66-1.02 1.82-.75 1.92-.47 317.92-.15 1.82-.14 1.75-.43 1.67-.68 1.54-.94 1.37-1.17 1.17-1.36.95-1.54.7-1.67.4-1.73.15-127.02z" stroke="#3a414a" stroke-width=".05" fill="#3a414a"/><path d="M640.5 1154.06h-1v-.5h1z" fill="#3a414a"/><path d="M640.52 1154.08h-1.04v-.56h1.04zm-1-.5v.46h.96v-.47z" stroke="#3a414a" stroke-width=".05" fill="#3a414a"/><path d="M984.64 862.78h-9.28L980 848.5z" fill="#3a414a"/><path d="M985.32 863.28h-10.64L980 846.9zm-9.27-1h7.9L980 850.13z" stroke="#3a414a" stroke-width=".05" fill="#3a414a"/><path d="M780.45 896.5h48.28a12 12 0 0 0 12-12v-86.1a12 12 0 0 1 12-12h32.4" stroke="#3a414a" fill="none"/><path d="M780.46 897h-.5v-1h.5z" stroke="#3a414a" stroke-width=".05" fill="#3a414a"/><path d="M899.88 786.4l-14.26 4.63v-9.27z" stroke="#3a414a" fill="#3a414a"/><path d="M720.45 1188.02H775.6" stroke="#3a414a" fill="none"/><path d="M720.46 1188.52h-.5v-1h.5z" stroke="#3a414a" stroke-width=".05" fill="#3a414a"/><path d="M790.37 1188.02l-14.26 4.64v-9.27z" stroke="#3a414a" fill="#3a414a"/><path d="M700.5 1006.37l.14 1.82.42 1.74.7 1.67.94 1.55 1.17 1.37 1.37 1.17 1.54.93 1.67.7 1.73.4 703.64.16 1.93.14 1.9.46 1.82.75 1.67 1.02 1.5 1.28 1.27 1.5 1.03 1.66.76 1.83.45 1.92.15 61.48h-1l-.15-61.36-.42-1.73-.7-1.67-.93-1.54-1.17-1.37-1.38-1.17-1.53-.96-1.67-.7-1.76-.4-1.82-.15-703.72-.16-1.92-.46-1.82-.75-1.67-1.03-1.5-1.27-1.26-1.5-1.04-1.67-.75-1.8-.45-1.92-.15-1.93v-75.44h1z" stroke="#3a414a" stroke-width=".05" fill="#3a414a"/><path d="M700.5 930.97h-1v-.5h1z" fill="#3a414a"/><path d="M700.52 931h-1.04v-.56h1.04zm-1-.5v.45h.96v-.46z" stroke="#3a414a" stroke-width=".05" fill="#3a414a"/><path d="M1425.8 1104.7l-4.64-14.27h9.27z" fill="#3a414a"/><path d="M1425.8 1106.32l-5.33-16.4h10.65zm-3.95-15.4l3.95 12.16 3.94-12.15z" stroke="#3a414a" stroke-width=".05" fill="#3a414a"/><path d="M1175.1 781.72a13.33 13.33 0 0 1 11.75-7.05h104c8.84 0 16 26.86 16 60 0 33.13-7.16 60-16 60h-104a13.33 13.33 0 0 1-11.76-7.06l-24.48-45.88a15 15 0 0 1 0-14.1z" stroke="#3a414a" fill="#e3fae3"/><use xlink:href="#Z" transform="matrix(1,0,0,1,1151.8534472146569,779.6657287214615) translate(13.124999999999993 58.6)"/><use xlink:href="#aa" transform="matrix(1,0,0,1,1151.8534472146569,779.6657287214615) translate(76.975 58.6)"/><path d="M1500 1105.54V846.67a12 12 0 0 0-12-12h-164.26" stroke="#3a414a" fill="none"/><path d="M1500.5 1106.04h-1v-.52h1z" stroke="#3a414a" stroke-width=".05" fill="#3a414a"/><path d="M1308.97 834.67l14.27-4.64v9.27z" stroke="#3a414a" fill="#3a414a"/><path d="M1520 765.82a8 8 0 0 1 8-8h144a8 8 0 0 1 8 8v52.02a8 8 0 0 1-8 8h-144a8 8 0 0 1-8-8z" stroke="#000" stroke-opacity="0" stroke-width="2" fill="#ff8839"/><use xlink:href="#L" transform="matrix(1,0,0,1,1532,769.8209613389591) translate(8.099999999999994 15.299999999999999)"/><use xlink:href="#ab" transform="matrix(1,0,0,1,1532,769.8209613389591) translate(56.05 15.299999999999999)"/><use xlink:href="#ac" transform="matrix(1,0,0,1,1532,769.8209613389591) translate(113.95 15.299999999999999)"/><use xlink:href="#ad" transform="matrix(1,0,0,1,1532,769.8209613389591) translate(40.074999999999996 36.9)"/><path d="M1580.45 1140h7.55a12 12 0 0 0 12-12V842.18" stroke="#3a414a" fill="none"/><path d="M1580.46 1140.5h-.5v-1h.5z" stroke="#3a414a" stroke-width=".05" fill="#3a414a"/><path d="M1600 827.4l4.64 14.28h-9.28z" stroke="#3a414a" fill="#3a414a"/><path d="M1175.1 613.46a13.33 13.33 0 0 1 11.75-7.06h104c8.84 0 16 26.86 16 60 0 33.13-7.16 60-16 60h-104a13.33 13.33 0 0 1-11.76-7.06l-24.48-45.88a15 15 0 0 1 0-14.12z" stroke="#3a414a" fill="#e3fae3"/><use xlink:href="#F" transform="matrix(1,0,0,1,1151.8534472146569,611.3963092056075) translate(15.599999999999994 47.8)"/><use xlink:href="#ae" transform="matrix(1,0,0,1,1151.8534472146569,611.3963092056075) translate(78.55 47.8)"/><use xlink:href="#af" transform="matrix(1,0,0,1,1151.8534472146569,611.3963092056075) translate(45.574999999999996 69.4)"/><path d="M1519 649.5h-97.13a8.45 8.45 0 0 0-8.44 8.45 8.45 8.45 0 0 1-8.45 8.45h-81.24" stroke="#3a414a" fill="none"/><path d="M1519.5 650h-.5v-1h.5z" stroke="#3a414a" stroke-width=".05" fill="#3a414a"/><path d="M1308.97 666.4l14.27-4.64v9.27z" stroke="#3a414a" fill="#3a414a"/><path d="M1088 160c17.67 0 32 17.9 32 40s-14.33 40-32 40h-96c-17.67 0-32-17.9-32-40s14.33-40 32-40z" stroke="#000" stroke-opacity="0" fill="#ff741d"/><g><use xlink:href="#ag" transform="matrix(1,0,0,1,965,165) translate(7.625 38.6)"/><use xlink:href="#ah" transform="matrix(1,0,0,1,965,165) translate(50.525000000000006 38.6)"/><use xlink:href="#ai" transform="matrix(1,0,0,1,965,165) translate(107.37500000000001 38.6)"/></g><path d="M960 337.34a9.06 9.06 0 0 1 7.94-9l144.12-17.93a7.07 7.07 0 0 1 7.94 7.02v104a8 8 0 0 1-8 8H968a8 8 0 0 1-8-8z" stroke="#000" fill="#cfe4ff"/><g><use xlink:href="#aj" transform="matrix(1,0,0,1,965,334.42238802136853) translate(11.149999999999991 37.8)"/><use xlink:href="#ak" transform="matrix(1,0,0,1,965,334.42238802136853) translate(55 59.4)"/></g><path d="M1040 240.5v62.04" stroke="#3a414a" fill="none"/><path d="M1040.5 240.5h-1v-.5h1z" stroke="#3a414a" stroke-width=".05" fill="#3a414a"/><path d="M1040 317.3l-4.64-14.26h9.28z" stroke="#3a414a" fill="#3a414a"/><path d="M1640 697.5c0 6.63-26.86 12-60 12s-60-5.37-60-12v-96c0-6.63 26.86-12 60-12s60 5.37 60 12z" stroke="#3a414a" fill="#ff8f8f"/><path d="M1640 601.5c0 6.63-26.86 12-60 12s-60-5.37-60-12" stroke="#3a414a" fill="none"/><g><use xlink:href="#al" transform="matrix(1,0,0,1,1525,618.5007971143555) translate(16.525 46.6)"/></g><path d="M1600 757.37v-13.43a10 10 0 0 0-10-10h-2.45a7.55 7.55 0 0 1-7.55-7.56" stroke="#3a414a" fill="none"/><path d="M1600.5 757.87h-1v-.5h1z" stroke="#3a414a" stroke-width=".05" fill="#3a414a"/><path d="M1580 711.62l4.64 14.26h-9.28z" stroke="#3a414a" fill="#3a414a"/><path d="M1273.6 313.3a10.67 10.67 0 0 1 12.8 0l67.2 50.4a6 6 0 0 1 0 9.6l-67.2 50.4a10.67 10.67 0 0 1-12.8 0l-67.2-50.4a6 6 0 0 1 0-9.6z" stroke="#fe5900" stroke-width="4" fill="#fff"/><g><use xlink:href="#am" transform="matrix(1,0,0,1,1205,313.4869605921195) translate(23.14999999999999 58.6)"/><use xlink:href="#an" transform="matrix(1,0,0,1,1205,313.4869605921195) translate(71 58.6)"/></g><path d="M1570.03 367.64l2 .48 1.87.78 1.74 1.07 1.55 1.32 1.32 1.54 1.07 1.74.77 1.9.48 2 .15 69.34h-2l-.15-69.1-.4-1.63-.65-1.6-.9-1.48-1.12-1.3-1.32-1.13-1.47-.9-1.6-.67-1.68-.4-1.76-.14h-35.36v-2h35.44zM1359 369.5v-2h144.25v2z" stroke="#7ab648" stroke-width=".05" fill="#7ab648"/><path d="M1359.03 369.5h-1.1l.08-1-.08-1h1.1z" fill="#7ab648"/><path d="M1359.06 369.5h-1.17l.08-1-.1-1.04h1.18zm-1.12-2l.1 1-.1.96h1.07v-1.95z" stroke="#7ab648" stroke-width=".05" fill="#7ab648"/><path d="M1580 463.1l-4.64-14.28h9.28z" fill="#7ab648"/><path d="M1580 466.33l-6-18.5h12zm-3.26-16.5l3.26 10.02 3.26-10.03z" stroke="#7ab648" stroke-width=".05" fill="#7ab648"/><g><use xlink:href="#w" transform="matrix(1,0,0,1,1503.2492105761708,357.6869605921195) translate(0.005000000000000782 14.4)"/></g><path d="M1500 474.28a8 8 0 0 1 8-8h144a8 8 0 0 1 8 8v52.02a8 8 0 0 1-8 8h-144a8 8 0 0 1-8-8z" stroke="#000" stroke-opacity="0" stroke-width="2" fill="#ff8839"/><g><use xlink:href="#ao" transform="matrix(1,0,0,1,1512,478.27792901601777) translate(16.14999999999999 26.1)"/><use xlink:href="#ad" transform="matrix(1,0,0,1,1512,478.27792901601777) translate(64 26.1)"/></g><path d="M1580 534.75v37.87" stroke="#3a414a" fill="none"/><path d="M1580.5 534.76h-1v-.5h1z" stroke="#3a414a" stroke-width=".05" fill="#3a414a"/><path d="M1580 587.38l-4.64-14.26h9.28z" stroke="#3a414a" fill="#3a414a"/><path d="M1120.95 369.65h39.7a.58.58 0 0 0 .57-.58.58.58 0 0 1 .58-.58h23.8" stroke="#3a414a" fill="none"/><path d="M1120.96 370.15h-.5v-1h.5z" stroke="#3a414a" stroke-width=".05" fill="#3a414a"/><path d="M1200.37 368.5l-14.26 4.62v-9.27z" stroke="#3a414a" fill="#3a414a"/><path d="M1128.53 474.87l-116.5.07-1.75.14-1.68.4-1.6.66-1.46.9-1.32 1.12-1.12 1.3-.9 1.48-.66 1.6-.4 1.64-.14 17.38-2-.02.15-17.6.48-2.02.78-1.9 1.08-1.73 1.33-1.56 1.56-1.32 1.74-1.07 1.88-.78 2-.48 1.98-.16 116.57-.07zm152.47-12.9l-.16 2-.47 1.98-.78 1.9-1.08 1.73-1.33 1.55-1.56 1.33-1.74 1.06-1.88.78-2.02.5-118.53.06v-2l118.3-.07 1.63-.4 1.6-.67 1.46-.9 1.32-1.12 1.12-1.3.9-1.47.66-1.6.4-1.67.14-1.76v-33.08h2z" stroke="#c92d39" stroke-width=".05" fill="#c92d39"/><path d="M1280 427.82l1-.06v1.1h-2v-1.1z" fill="#c92d39"/><path d="M1280 427.8l1.03-.07v1.15h-2.06v-1.15zm-.97 1.03h1.94v-1.04l-.97.05-.97-.06z" stroke="#c92d39" stroke-width=".05" fill="#c92d39"/><path d="M1000 516.8l-4.64-14.25h9.28z" fill="#c92d39"/><path d="M1000 520.05l-6-18.5h12zm-3.26-16.5l3.26 10.03 3.26-10.03z" stroke="#c92d39" stroke-width=".05" fill="#c92d39"/><g><use xlink:href="#x" transform="matrix(1,0,0,1,1128.525,463.1366429094991) translate(0.005000000000000782 14.4)"/></g><path d="M920 528a8 8 0 0 1 8-8h144a8 8 0 0 1 8 8v53.5a8 8 0 0 1-8 8H928a8 8 0 0 1-8-8z" stroke="#000" stroke-opacity="0" stroke-width="2" fill="#ff8839"/><g><use xlink:href="#ap" transform="matrix(1,0,0,1,925,525) translate(31.074999999999996 33.6)"/><use xlink:href="#aq" transform="matrix(1,0,0,1,925,525) translate(78.92500000000001 33.6)"/></g><path d="M1000 589.95v27.5a12 12 0 0 0 12 12h76.5a12 12 0 0 1 12 12V774.4a12 12 0 0 1-12 12h-11.62" stroke="#3a414a" fill="none"/><path d="M1000.5 589.96h-1v-.5h1z" stroke="#3a414a" stroke-width=".05" fill="#3a414a"/><path d="M1062.12 786.4l14.26-4.64v9.27z" stroke="#3a414a" fill="#3a414a"/><defs><path fill="#fff" d="M194-120c59 52 2 134-86 124-53-6-90-18-98-63l31-7c8 30 29 43 70 43 46 0 84-17 71-62-32-43-135-20-137-98-3-89 178-90 191-16l-30 9c-8-48-127-53-127 5 0 53 81 35 115 65" id="ar"/><path fill="#fff" d="M51-54c-9 22 5 41 31 30L79-1C43 14 10-4 19-52l22-115H19l5-23h22l19-43h21l-9 43h35l-4 23H73" id="as"/><path fill="#fff" d="M165-48c-4 18 1 34 23 27l-3 20c-29 8-62 0-52-35h-2C116-14 99 4 63 4 30 4 8-16 8-49c0-68 71-67 138-67 10-26 0-56-31-54-26 1-42 9-47 31l-32-5c8-67 160-71 144 15-5 28-9 54-15 81zM42-50c3 52 80 24 89-6 7-12 7-24 11-38-47 1-103-4-100 44" id="at"/><path fill="#fff" d="M66-151c12-25 30-51 66-40l-6 26C45-176 58-65 38 0H6l36-190h30" id="au"/><g id="a"><use transform="matrix(0.05,0,0,0.05,0,0)" xlink:href="#ar"/><use transform="matrix(0.05,0,0,0.05,12,0)" xlink:href="#as"/><use transform="matrix(0.05,0,0,0.05,17,0)" xlink:href="#at"/><use transform="matrix(0.05,0,0,0.05,27,0)" xlink:href="#au"/><use transform="matrix(0.05,0,0,0.05,32.95,0)" xlink:href="#as"/></g><path fill="#fff" d="M238-179c0 84-86 86-175 82L45 0H11l48-248c82 0 179-12 179 69zm-34 1c0-53-64-42-116-43l-19 98c63 0 135 9 135-55" id="av"/><path fill="#fff" d="M30-147c31-64 166-65 159 27C183-49 158 1 86 4 9 8 1-88 30-147zM88-20c53 0 68-48 68-100 0-31-11-51-44-50-52 1-68 46-68 97 0 32 13 53 44 53" id="aw"/><path fill="#fff" d="M44-68c0 29 11 47 38 47 30 0 42-19 51-41l28 9C148-21 126 4 82 4 31 4 10-29 12-85c3-77 74-140 146-93 12 8 15 23 18 40l-31 5c-1-22-13-36-36-36-52 0-65 49-65 101" id="ax"/><path fill="#fff" d="M111-194c62-3 86 47 72 106H45c-7 38 6 69 45 68 27-1 43-14 53-32l24 11C152-15 129 4 87 4 38 3 12-23 12-71c0-70 32-119 99-123zm44 81c14-66-71-72-95-28-4 8-8 17-11 28h106" id="ay"/><path fill="#fff" d="M55-144c13 50 104 24 104 88C159 21 15 23 1-39l26-10c6 40 102 42 102-4-13-50-104-23-104-87 0-71 143-71 148-8l-29 4c-5-35-85-37-89 0" id="az"/><g id="b"><use transform="matrix(0.05,0,0,0.05,0,0)" xlink:href="#av"/><use transform="matrix(0.05,0,0,0.05,12,0)" xlink:href="#au"/><use transform="matrix(0.05,0,0,0.05,17.95,0)" xlink:href="#aw"/><use transform="matrix(0.05,0,0,0.05,27.950000000000003,0)" xlink:href="#ax"/><use transform="matrix(0.05,0,0,0.05,36.95,0)" xlink:href="#ay"/><use transform="matrix(0.05,0,0,0.05,46.95,0)" xlink:href="#az"/><use transform="matrix(0.05,0,0,0.05,55.95,0)" xlink:href="#az"/></g><path fill="#fff" d="M219-77C219 17 104-2 11 0l48-248c73 2 169-15 169 57 0 38-24 54-60 60 29 5 51 21 51 54zm-26-111c0-44-62-31-105-33l-16 79c55 0 121 9 121-46zm-7 110c-1-49-69-36-119-38L50-27c61-1 137 12 136-51" id="aA"/><path fill="#fff" d="M67 3c-93-2-31-127-26-193h32L48-50c-3 39 53 32 70 12 30-34 30-101 43-152h32L157 0h-30c1-10 6-24 4-33-14 20-29 37-64 36" id="aB"/><path fill="#fff" d="M67-158c22-48 132-52 116 29L158 0h-32l25-140c3-38-53-32-70-12C52-117 51-52 38 0H6l36-190h30" id="aC"/><g id="c"><use transform="matrix(0.05,0,0,0.05,0,0)" xlink:href="#aA"/><use transform="matrix(0.05,0,0,0.05,12,0)" xlink:href="#aB"/><use transform="matrix(0.05,0,0,0.05,22,0)" xlink:href="#as"/><use transform="matrix(0.05,0,0,0.05,27,0)" xlink:href="#as"/><use transform="matrix(0.05,0,0,0.05,32,0)" xlink:href="#aw"/><use transform="matrix(0.05,0,0,0.05,42,0)" xlink:href="#aC"/></g><path fill="#fff" d="M50-231l6-30h32l-6 30H50zM6 0l37-190h31L37 0H6" id="aD"/><path fill="#fff" d="M67-162c32-53 139-36 121 50C175-51 163 2 97 4 68 4 52-11 42-31 38 6 28 39 22 75H-9l50-265h29c-1 10 0 20-3 28zm89 36c0-26-10-43-35-43-54 0-67 50-69 103-1 29 14 45 42 46 53 0 62-58 62-106" id="aE"/><g id="d"><use transform="matrix(0.05,0,0,0.05,0,0)" xlink:href="#aD"/><use transform="matrix(0.05,0,0,0.05,3.95,0)" xlink:href="#aC"/><use transform="matrix(0.05,0,0,0.05,13.949999999999998,0)" xlink:href="#aE"/><use transform="matrix(0.05,0,0,0.05,23.95,0)" xlink:href="#aB"/><use transform="matrix(0.05,0,0,0.05,33.95,0)" xlink:href="#as"/></g><path fill="#a9afb8" d="M67-125c0 53 21 87 73 88 37 1 54-22 65-47l45 17C233-25 199 4 140 4 58 4 20-42 15-125 8-235 124-281 211-232c18 10 29 29 36 50l-46 12c-8-25-30-41-62-41-52 0-71 34-72 86" id="aF"/><path fill="#a9afb8" d="M133-34C117-15 103 5 69 4 32 3 11-16 11-54c-1-60 55-63 116-61 1-26-3-47-28-47-18 1-26 9-28 27l-52-2c7-38 36-58 82-57s74 22 75 68l1 82c-1 14 12 18 25 15v27c-30 8-71 5-69-32zm-48 3c29 0 43-24 42-57-32 0-66-3-65 30 0 17 8 27 23 27" id="aG"/><path fill="#a9afb8" d="M25 0v-261h50V0H25" id="aH"/><path fill="#a9afb8" d="M190-63c-7 42-38 67-86 67-59 0-84-38-90-98-12-110 154-137 174-36l-49 2c-2-19-15-32-35-32-30 0-35 28-38 64-6 74 65 87 74 30" id="aI"/><path fill="#a9afb8" d="M85 4C-2 5 27-109 22-190h50c7 57-23 150 33 157 60-5 35-97 40-157h50l1 190h-47c-2-12 1-28-3-38-12 25-28 42-61 42" id="aJ"/><path fill="#a9afb8" d="M115-3C79 11 28 4 28-45v-112H4v-33h27l15-45h31v45h36v33H77v99c-1 23 16 31 38 25v30" id="aK"/><path fill="#a9afb8" d="M110-194c64 0 96 36 96 99 0 64-35 99-97 99-61 0-95-36-95-99 0-62 34-99 96-99zm-1 164c35 0 45-28 45-65 0-40-10-65-43-65-34 0-45 26-45 65 0 36 10 65 43 65" id="aL"/><path fill="#a9afb8" d="M135-150c-39-12-60 13-60 57V0H25l-1-190h47c2 13-1 29 3 40 6-28 27-53 61-41v41" id="aM"/><g id="e"><use transform="matrix(0.0728395061728395,0,0,0.0728395061728395,0,0)" xlink:href="#aF"/><use transform="matrix(0.0728395061728395,0,0,0.0728395061728395,18.86543209876543,0)" xlink:href="#aG"/><use transform="matrix(0.0728395061728395,0,0,0.0728395061728395,33.43333333333333,0)" xlink:href="#aH"/><use transform="matrix(0.0728395061728395,0,0,0.0728395061728395,40.717283950617286,0)" xlink:href="#aI"/><use transform="matrix(0.0728395061728395,0,0,0.0728395061728395,55.28518518518518,0)" xlink:href="#aJ"/><use transform="matrix(0.0728395061728395,0,0,0.0728395061728395,71.23703703703703,0)" xlink:href="#aH"/><use transform="matrix(0.0728395061728395,0,0,0.0728395061728395,78.52098765432098,0)" xlink:href="#aG"/><use transform="matrix(0.0728395061728395,0,0,0.0728395061728395,93.08888888888887,0)" xlink:href="#aK"/><use transform="matrix(0.0728395061728395,0,0,0.0728395061728395,101.75679012345678,0)" xlink:href="#aL"/><use transform="matrix(0.0728395061728395,0,0,0.0728395061728395,117.70864197530864,0)" xlink:href="#aM"/></g><path fill="#a9afb8" d="M76-208v77h127v40H76V0H24v-248h183v40H76" id="aN"/><path fill="#a9afb8" d="M231 0h-52l-39-155L100 0H48L-1-190h46L77-45c9-52 24-97 36-145h53l37 145 32-145h46" id="aO"/><path fill="#a9afb8" d="M114-157C55-157 80-60 75 0H25v-261h50l-1 109c12-26 28-41 61-42 86-1 58 113 63 194h-50c-7-57 23-157-34-157" id="aP"/><g id="f"><use transform="matrix(0.0728395061728395,0,0,0.0728395061728395,0,0)" xlink:href="#aN"/><use transform="matrix(0.0728395061728395,0,0,0.0728395061728395,15.95185185185185,0)" xlink:href="#aH"/><use transform="matrix(0.0728395061728395,0,0,0.0728395061728395,23.235802469135802,0)" xlink:href="#aL"/><use transform="matrix(0.0728395061728395,0,0,0.0728395061728395,39.187654320987654,0)" xlink:href="#aO"/><use transform="matrix(0.0728395061728395,0,0,0.0728395061728395,59.582716049382704,0)" xlink:href="#aI"/><use transform="matrix(0.0728395061728395,0,0,0.0728395061728395,74.15061728395061,0)" xlink:href="#aP"/><use transform="matrix(0.0728395061728395,0,0,0.0728395061728395,90.10246913580247,0)" xlink:href="#aG"/><use transform="matrix(0.0728395061728395,0,0,0.0728395061728395,104.67037037037036,0)" xlink:href="#aM"/><use transform="matrix(0.0728395061728395,0,0,0.0728395061728395,114.8679012345679,0)" xlink:href="#aK"/></g><path fill="#a9afb8" d="M205 0l-28-72H64L36 0H1l101-248h38L239 0h-34zm-38-99l-47-123c-12 45-31 82-46 123h93" id="aQ"/><path fill="#a9afb8" d="M117-194c89-4 53 116 60 194h-32v-121c0-31-8-49-39-48C34-167 62-67 57 0H25l-1-190h30c1 10-1 24 2 32 11-22 29-35 61-36" id="aR"/><path fill="#a9afb8" d="M59-47c-2 24 18 29 38 22v24C64 9 27 4 27-40v-127H5v-23h24l9-43h21v43h35v23H59v120" id="aS"/><path fill="#a9afb8" d="M106-169C34-169 62-67 57 0H25v-261h32l-1 103c12-21 28-36 61-36 89 0 53 116 60 194h-32v-121c2-32-8-49-39-48" id="aT"/><path fill="#a9afb8" d="M100-194c62-1 85 37 85 99 1 63-27 99-86 99S16-35 15-95c0-66 28-99 85-99zM99-20c44 1 53-31 53-75 0-43-8-75-51-75s-53 32-53 75 10 74 51 75" id="aU"/><path fill="#a9afb8" d="M179-190L93 31C79 59 56 82 12 73V49c39 6 53-20 64-50L1-190h34L92-34l54-156h33" id="aV"/><g id="g"><use transform="matrix(0.04248971193415638,0,0,0.04248971193415638,0,0)" xlink:href="#aQ"/><use transform="matrix(0.04248971193415638,0,0,0.04248971193415638,10.19753086419753,0)" xlink:href="#aR"/><use transform="matrix(0.04248971193415638,0,0,0.04248971193415638,18.695473251028805,0)" xlink:href="#aS"/><use transform="matrix(0.04248971193415638,0,0,0.04248971193415638,22.944444444444443,0)" xlink:href="#aT"/><use transform="matrix(0.04248971193415638,0,0,0.04248971193415638,31.44238683127572,0)" xlink:href="#aU"/><use transform="matrix(0.04248971193415638,0,0,0.04248971193415638,39.940329218106996,0)" xlink:href="#aR"/><use transform="matrix(0.04248971193415638,0,0,0.04248971193415638,48.43827160493827,0)" xlink:href="#aV"/></g><path fill="#a9afb8" d="M212-179c-10-28-35-45-73-45-59 0-87 40-87 99 0 60 29 101 89 101 43 0 62-24 78-52l27 14C228-24 195 4 139 4 59 4 22-46 18-125c-6-104 99-153 187-111 19 9 31 26 39 46" id="aW"/><path fill="#a9afb8" d="M141-36C126-15 110 5 73 4 37 3 15-17 15-53c-1-64 63-63 125-63 3-35-9-54-41-54-24 1-41 7-42 31l-33-3c5-37 33-52 76-52 45 0 72 20 72 64v82c-1 20 7 32 28 27v20c-31 9-61-2-59-35zM48-53c0 20 12 33 32 33 41-3 63-29 60-74-43 2-92-5-92 41" id="aX"/><path fill="#a9afb8" d="M210-169c-67 3-38 105-44 169h-31v-121c0-29-5-50-35-48C34-165 62-65 56 0H25l-1-190h30c1 10-1 24 2 32 10-44 99-50 107 0 11-21 27-35 58-36 85-2 47 119 55 194h-31v-121c0-29-5-49-35-48" id="aY"/><path fill="#a9afb8" d="M115-194c55 1 70 41 70 98S169 2 115 4C84 4 66-9 55-30l1 105H24l-1-265h31l2 30c10-21 28-34 59-34zm-8 174c40 0 45-34 45-75s-6-73-45-74c-42 0-51 32-51 76 0 43 10 73 51 73" id="aZ"/><path fill="#a9afb8" d="M135-143c-3-34-86-38-87 0 15 53 115 12 119 90S17 21 10-45l28-5c4 36 97 45 98 0-10-56-113-15-118-90-4-57 82-63 122-42 12 7 21 19 24 35" id="ba"/><g id="h"><use transform="matrix(0.04248971193415638,0,0,0.04248971193415638,0,0)" xlink:href="#aW"/><use transform="matrix(0.04248971193415638,0,0,0.04248971193415638,11.004835390946502,0)" xlink:href="#aX"/><use transform="matrix(0.04248971193415638,0,0,0.04248971193415638,19.502777777777776,0)" xlink:href="#aY"/><use transform="matrix(0.04248971193415638,0,0,0.04248971193415638,32.20720164609053,0)" xlink:href="#aZ"/><use transform="matrix(0.04248971193415638,0,0,0.04248971193415638,40.70514403292181,0)" xlink:href="#aU"/><use transform="matrix(0.04248971193415638,0,0,0.04248971193415638,49.203086419753085,0)" xlink:href="#ba"/></g><path fill="#a9afb8" d="M32 76v-337h29V76H32" id="bb"/><use transform="matrix(0.04248971193415638,0,0,0.04248971193415638,0,0)" xlink:href="#bb" id="i"/><path fill="#a9afb8" d="M30-248c118-7 216 8 213 122C240-48 200 0 122 0H30v-248zM63-27c89 8 146-16 146-99s-60-101-146-95v194" id="bc"/><path fill="#a9afb8" d="M100-194c63 0 86 42 84 106H49c0 40 14 67 53 68 26 1 43-12 49-29l28 8c-11 28-37 45-77 45C44 4 14-33 15-96c1-61 26-98 85-98zm52 81c6-60-76-77-97-28-3 7-6 17-6 28h103" id="bd"/><path fill="#a9afb8" d="M96-169c-40 0-48 33-48 73s9 75 48 75c24 0 41-14 43-38l32 2c-6 37-31 61-74 61-59 0-76-41-82-99-10-93 101-131 147-64 4 7 5 14 7 22l-32 3c-4-21-16-35-41-35" id="be"/><path fill="#a9afb8" d="M115-194c53 0 69 39 70 98 0 66-23 100-70 100C84 3 66-7 56-30L54 0H23l1-261h32v101c10-23 28-34 59-34zm-8 174c40 0 45-34 45-75 0-40-5-75-45-74-42 0-51 32-51 76 0 43 10 73 51 73" id="bf"/><path fill="#a9afb8" d="M114-163C36-179 61-72 57 0H25l-1-190h30c1 12-1 29 2 39 6-27 23-49 58-41v29" id="bg"/><g id="j"><use transform="matrix(0.04248971193415638,0,0,0.04248971193415638,0,0)" xlink:href="#bc"/><use transform="matrix(0.04248971193415638,0,0,0.04248971193415638,11.004835390946502,0)" xlink:href="#bd"/><use transform="matrix(0.04248971193415638,0,0,0.04248971193415638,19.502777777777776,0)" xlink:href="#be"/><use transform="matrix(0.04248971193415638,0,0,0.04248971193415638,27.150925925925925,0)" xlink:href="#bd"/><use transform="matrix(0.04248971193415638,0,0,0.04248971193415638,35.6488683127572,0)" xlink:href="#aY"/><use transform="matrix(0.04248971193415638,0,0,0.04248971193415638,48.35329218106995,0)" xlink:href="#bf"/><use transform="matrix(0.04248971193415638,0,0,0.04248971193415638,56.851234567901244,0)" xlink:href="#bd"/><use transform="matrix(0.04248971193415638,0,0,0.04248971193415638,65.34917695473251,0)" xlink:href="#bg"/></g><path fill="#a9afb8" d="M27 0v-27h64v-190l-56 39v-29l58-41h29v221h61V0H27" id="bh"/><path fill="#a9afb8" d="M126-127c33 6 58 20 58 59 0 88-139 92-164 29-3-8-5-16-6-25l32-3c6 27 21 44 54 44 32 0 52-15 52-46 0-38-36-46-79-43v-28c39 1 72-4 72-42 0-27-17-43-46-43-28 0-47 15-49 41l-32-3c6-42 35-63 81-64 48-1 79 21 79 65 0 36-21 52-52 59" id="bi"/><path fill="#a9afb8" d="M68-38c1 34 0 65-14 84H32c9-13 17-26 17-46H33v-38h35" id="bj"/><g id="k"><use transform="matrix(0.04248971193415638,0,0,0.04248971193415638,0,0)" xlink:href="#bh"/><use transform="matrix(0.04248971193415638,0,0,0.04248971193415638,8.497942386831275,0)" xlink:href="#bi"/><use transform="matrix(0.04248971193415638,0,0,0.04248971193415638,16.99588477366255,0)" xlink:href="#bj"/></g><path fill="#a9afb8" d="M101-251c82-7 93 87 43 132L82-64C71-53 59-42 53-27h129V0H18c2-99 128-94 128-182 0-28-16-43-45-43s-46 15-49 41l-32-3c6-41 34-60 81-64" id="bk"/><path fill="#a9afb8" d="M101-251c68 0 85 55 85 127S166 4 100 4C33 4 14-52 14-124c0-73 17-127 87-127zm-1 229c47 0 54-49 54-102s-4-102-53-102c-51 0-55 48-55 102 0 53 5 102 54 102" id="bl"/><g id="l"><use transform="matrix(0.04248971193415638,0,0,0.04248971193415638,0,0)" xlink:href="#bk"/><use transform="matrix(0.04248971193415638,0,0,0.04248971193415638,8.497942386831275,0)" xlink:href="#bl"/><use transform="matrix(0.04248971193415638,0,0,0.04248971193415638,16.99588477366255,0)" xlink:href="#bk"/><use transform="matrix(0.04248971193415638,0,0,0.04248971193415638,25.493827160493822,0)" xlink:href="#bk"/></g><path d="M24-248c120-7 223 5 221 122C244-46 201 0 124 0H24v-248zM76-40c74 7 117-18 117-86 0-67-45-88-117-82v168" id="bm"/><path d="M25-224v-37h50v37H25zM25 0v-190h50V0H25" id="bn"/><path d="M133-34C117-15 103 5 69 4 32 3 11-16 11-54c-1-60 55-63 116-61 1-26-3-47-28-47-18 1-26 9-28 27l-52-2c7-38 36-58 82-57s74 22 75 68l1 82c-1 14 12 18 25 15v27c-30 8-71 5-69-32zm-48 3c29 0 43-24 42-57-32 0-66-3-65 30 0 17 8 27 23 27" id="bo"/><path d="M195-6C206 82 75 100 31 46c-4-6-6-13-8-21l49-6c3 16 16 24 34 25 40 0 42-37 40-79-11 22-30 35-61 35-53 0-70-43-70-97 0-56 18-96 73-97 30 0 46 14 59 34l2-30h47zm-90-29c32 0 41-27 41-63 0-35-9-62-40-62-32 0-39 29-40 63 0 36 9 62 39 62" id="bp"/><path d="M135-150c-39-12-60 13-60 57V0H25l-1-190h47c2 13-1 29 3 40 6-28 27-53 61-41v41" id="bq"/><path d="M220-157c-53 9-28 100-34 157h-49v-107c1-27-5-49-29-50C55-147 81-57 75 0H25l-1-190h47c2 12-1 28 3 38 10-53 101-56 108 0 13-22 24-43 59-42 82 1 51 116 57 194h-49v-107c-1-25-5-48-29-50" id="br"/><g id="m"><use transform="matrix(0.05,0,0,0.05,0,0)" xlink:href="#bm"/><use transform="matrix(0.05,0,0,0.05,12.950000000000001,0)" xlink:href="#bn"/><use transform="matrix(0.05,0,0,0.05,17.950000000000003,0)" xlink:href="#bo"/><use transform="matrix(0.05,0,0,0.05,27.950000000000003,0)" xlink:href="#bp"/><use transform="matrix(0.05,0,0,0.05,38.900000000000006,0)" xlink:href="#bq"/><use transform="matrix(0.05,0,0,0.05,45.900000000000006,0)" xlink:href="#bo"/><use transform="matrix(0.05,0,0,0.05,55.900000000000006,0)" xlink:href="#br"/></g><path d="M195 0l-88-114-31 24V0H24v-248h52v113l112-113h60L142-143 257 0h-62" id="bs"/><path d="M185-48c-13 30-37 53-82 52C43 2 14-33 14-96s30-98 90-98c62 0 83 45 84 108H66c0 31 8 55 39 56 18 0 30-7 34-22zm-45-69c5-46-57-63-70-21-2 6-4 13-4 21h74" id="bt"/><path d="M123 10C108 53 80 86 19 72V37c35 8 53-11 59-39L3-190h52l48 148c12-52 28-100 44-148h51" id="bu"/><g id="n"><use transform="matrix(0.05,0,0,0.05,0,0)" xlink:href="#bs"/><use transform="matrix(0.05,0,0,0.05,12.950000000000001,0)" xlink:href="#bt"/><use transform="matrix(0.05,0,0,0.05,22.950000000000003,0)" xlink:href="#bu"/></g><path d="M137-103V0h-34v-103L8-248h37l75 118 75-118h37" id="bv"/><path d="M100-194c63 0 86 42 84 106H49c0 40 14 67 53 68 26 1 43-12 49-29l28 8c-11 28-37 45-77 45C44 4 14-33 15-96c1-61 26-98 85-98zm52 81c6-60-76-77-97-28-3 7-6 17-6 28h103" id="bw"/><path d="M135-143c-3-34-86-38-87 0 15 53 115 12 119 90S17 21 10-45l28-5c4 36 97 45 98 0-10-56-113-15-118-90-4-57 82-63 122-42 12 7 21 19 24 35" id="bx"/><g id="o"><use transform="matrix(0.03888888888888889,0,0,0.03888888888888889,0,0)" xlink:href="#bv"/><use transform="matrix(0.03888888888888889,0,0,0.03888888888888889,8.05,0)" xlink:href="#bw"/><use transform="matrix(0.03888888888888889,0,0,0.03888888888888889,15.827777777777781,0)" xlink:href="#bx"/></g><path d="M190 0L58-211 59 0H30v-248h39L202-35l-2-213h31V0h-41" id="by"/><path d="M100-194c62-1 85 37 85 99 1 63-27 99-86 99S16-35 15-95c0-66 28-99 85-99zM99-20c44 1 53-31 53-75 0-43-8-75-51-75s-53 32-53 75 10 74 51 75" id="bz"/><g id="p"><use transform="matrix(0.03888888888888889,0,0,0.03888888888888889,0,0)" xlink:href="#by"/><use transform="matrix(0.03888888888888889,0,0,0.03888888888888889,10.072222222222223,0)" xlink:href="#bz"/></g><path fill="#3a414a" d="M240 0l2-218c-23 76-54 145-80 218h-23L58-218 59 0H30v-248h44l77 211c21-75 51-140 76-211h43V0h-30" id="bA"/><path fill="#3a414a" d="M100-194c62-1 85 37 85 99 1 63-27 99-86 99S16-35 15-95c0-66 28-99 85-99zM99-20c44 1 53-31 53-75 0-43-8-75-51-75s-53 32-53 75 10 74 51 75" id="bB"/><path fill="#3a414a" d="M84 4C-5 8 30-112 23-190h32v120c0 31 7 50 39 49 72-2 45-101 50-169h31l1 190h-30c-1-10 1-25-2-33-11 22-28 36-60 37" id="bC"/><path fill="#3a414a" d="M135-143c-3-34-86-38-87 0 15 53 115 12 119 90S17 21 10-45l28-5c4 36 97 45 98 0-10-56-113-15-118-90-4-57 82-63 122-42 12 7 21 19 24 35" id="bD"/><path fill="#3a414a" d="M100-194c63 0 86 42 84 106H49c0 40 14 67 53 68 26 1 43-12 49-29l28 8c-11 28-37 45-77 45C44 4 14-33 15-96c1-61 26-98 85-98zm52 81c6-60-76-77-97-28-3 7-6 17-6 28h103" id="bE"/><g id="q"><use transform="matrix(0.05,0,0,0.05,0,0)" xlink:href="#bA"/><use transform="matrix(0.05,0,0,0.05,14.950000000000001,0)" xlink:href="#bB"/><use transform="matrix(0.05,0,0,0.05,24.950000000000003,0)" xlink:href="#bC"/><use transform="matrix(0.05,0,0,0.05,34.95,0)" xlink:href="#bD"/><use transform="matrix(0.05,0,0,0.05,43.95,0)" xlink:href="#bE"/></g><path fill="#3a414a" d="M33 0v-248h34V0H33" id="bF"/><path fill="#3a414a" d="M117-194c89-4 53 116 60 194h-32v-121c0-31-8-49-39-48C34-167 62-67 57 0H25l-1-190h30c1 10-1 24 2 32 11-22 29-35 61-36" id="bG"/><path fill="#3a414a" d="M115-194c55 1 70 41 70 98S169 2 115 4C84 4 66-9 55-30l1 105H24l-1-265h31l2 30c10-21 28-34 59-34zm-8 174c40 0 45-34 45-75s-6-73-45-74c-42 0-51 32-51 76 0 43 10 73 51 73" id="bH"/><path fill="#3a414a" d="M59-47c-2 24 18 29 38 22v24C64 9 27 4 27-40v-127H5v-23h24l9-43h21v43h35v23H59v120" id="bI"/><g id="r"><use transform="matrix(0.05,0,0,0.05,0,0)" xlink:href="#bF"/><use transform="matrix(0.05,0,0,0.05,5,0)" xlink:href="#bG"/><use transform="matrix(0.05,0,0,0.05,15,0)" xlink:href="#bH"/><use transform="matrix(0.05,0,0,0.05,25,0)" xlink:href="#bC"/><use transform="matrix(0.05,0,0,0.05,35,0)" xlink:href="#bI"/></g><path fill="#fff" d="M180 0L97-118 63-96 45 0H11l48-248h34L69-126c44-43 94-81 141-122h43L121-137 219 0h-39" id="bJ"/><path fill="#fff" d="M198-190L69 30C53 58 25 83-20 72c4-11-1-27 19-22 33-1 43-29 59-52L20-190h32L79-34l84-156h35" id="bK"/><g id="s"><use transform="matrix(0.05,0,0,0.05,0,0)" xlink:href="#bJ"/><use transform="matrix(0.05,0,0,0.05,12,0)" xlink:href="#ay"/><use transform="matrix(0.05,0,0,0.05,22,0)" xlink:href="#bK"/></g><path fill="#fff" d="M14 0l48-248h34L48 0H14" id="bL"/><g id="t"><use transform="matrix(0.05,0,0,0.05,0,0)" xlink:href="#bL"/><use transform="matrix(0.05,0,0,0.05,5,0)" xlink:href="#aC"/><use transform="matrix(0.05,0,0,0.05,15,0)" xlink:href="#aE"/><use transform="matrix(0.05,0,0,0.05,25,0)" xlink:href="#aB"/><use transform="matrix(0.05,0,0,0.05,35,0)" xlink:href="#as"/></g><path fill="#3a414a" d="M212-179c-10-28-35-45-73-45-59 0-87 40-87 99 0 60 29 101 89 101 43 0 62-24 78-52l27 14C228-24 195 4 139 4 59 4 22-46 18-125c-6-104 99-153 187-111 19 9 31 26 39 46" id="bM"/><path fill="#3a414a" d="M141-36C126-15 110 5 73 4 37 3 15-17 15-53c-1-64 63-63 125-63 3-35-9-54-41-54-24 1-41 7-42 31l-33-3c5-37 33-52 76-52 45 0 72 20 72 64v82c-1 20 7 32 28 27v20c-31 9-61-2-59-35zM48-53c0 20 12 33 32 33 41-3 63-29 60-74-43 2-92-5-92 41" id="bN"/><path fill="#3a414a" d="M24 0v-261h32V0H24" id="bO"/><path fill="#3a414a" d="M96-169c-40 0-48 33-48 73s9 75 48 75c24 0 41-14 43-38l32 2c-6 37-31 61-74 61-59 0-76-41-82-99-10-93 101-131 147-64 4 7 5 14 7 22l-32 3c-4-21-16-35-41-35" id="bP"/><path fill="#3a414a" d="M24-231v-30h32v30H24zM24 0v-190h32V0H24" id="bQ"/><g id="u"><use transform="matrix(0.05,0,0,0.05,0,0)" xlink:href="#bM"/><use transform="matrix(0.05,0,0,0.05,12.950000000000001,0)" xlink:href="#bN"/><use transform="matrix(0.05,0,0,0.05,22.950000000000003,0)" xlink:href="#bO"/><use transform="matrix(0.05,0,0,0.05,26.900000000000002,0)" xlink:href="#bP"/><use transform="matrix(0.05,0,0,0.05,35.900000000000006,0)" xlink:href="#bC"/><use transform="matrix(0.05,0,0,0.05,45.900000000000006,0)" xlink:href="#bO"/><use transform="matrix(0.05,0,0,0.05,49.85000000000001,0)" xlink:href="#bN"/><use transform="matrix(0.05,0,0,0.05,59.85,0)" xlink:href="#bI"/><use transform="matrix(0.05,0,0,0.05,64.85000000000001,0)" xlink:href="#bQ"/><use transform="matrix(0.05,0,0,0.05,68.80000000000001,0)" xlink:href="#bB"/><use transform="matrix(0.05,0,0,0.05,78.80000000000001,0)" xlink:href="#bG"/></g><g id="v"><use transform="matrix(0.05,0,0,0.05,0,0)" xlink:href="#bF"/><use transform="matrix(0.05,0,0,0.05,5,0)" xlink:href="#bG"/><use transform="matrix(0.05,0,0,0.05,15,0)" xlink:href="#bH"/><use transform="matrix(0.05,0,0,0.05,25,0)" xlink:href="#bC"/><use transform="matrix(0.05,0,0,0.05,35,0)" xlink:href="#bI"/></g><path fill="#3a414a" d="M137-103V0h-34v-103L8-248h37l75 118 75-118h37" id="bR"/><g id="w"><use transform="matrix(0.05,0,0,0.05,0,0)" xlink:href="#bR"/><use transform="matrix(0.05,0,0,0.05,10.35,0)" xlink:href="#bE"/><use transform="matrix(0.05,0,0,0.05,20.35,0)" xlink:href="#bD"/></g><path fill="#3a414a" d="M190 0L58-211 59 0H30v-248h39L202-35l-2-213h31V0h-41" id="bS"/><g id="x"><use transform="matrix(0.05,0,0,0.05,0,0)" xlink:href="#bS"/><use transform="matrix(0.05,0,0,0.05,12.950000000000001,0)" xlink:href="#bB"/></g><path fill="#3a414a" d="M137 0h-34L2-248h35l83 218 83-218h36" id="bT"/><path fill="#3a414a" d="M85-194c31 0 48 13 60 33l-1-100h32l1 261h-30c-2-10 0-23-3-31C134-8 116 4 85 4 32 4 16-35 15-94c0-66 23-100 70-100zm9 24c-40 0-46 34-46 75 0 40 6 74 45 74 42 0 51-32 51-76 0-42-9-74-50-73" id="bU"/><g id="y"><use transform="matrix(0.05,0,0,0.05,0,0)" xlink:href="#bT"/><use transform="matrix(0.05,0,0,0.05,10.65,0)" xlink:href="#bN"/><use transform="matrix(0.05,0,0,0.05,20.65,0)" xlink:href="#bO"/><use transform="matrix(0.05,0,0,0.05,24.599999999999998,0)" xlink:href="#bQ"/><use transform="matrix(0.05,0,0,0.05,28.549999999999997,0)" xlink:href="#bU"/></g><path fill="#3a414a" d="M194 0L95-120 63-95V0H30v-248h33v124l119-124h40L117-140 236 0h-42" id="bV"/><path fill="#3a414a" d="M179-190L93 31C79 59 56 82 12 73V49c39 6 53-20 64-50L1-190h34L92-34l54-156h33" id="bW"/><g id="z"><use transform="matrix(0.05,0,0,0.05,0,0)" xlink:href="#bV"/><use transform="matrix(0.05,0,0,0.05,12,0)" xlink:href="#bE"/><use transform="matrix(0.05,0,0,0.05,22,0)" xlink:href="#bW"/></g><path fill="#3a414a" d="M30-248c87 1 191-15 191 75 0 78-77 80-158 76V0H30v-248zm33 125c57 0 124 11 124-50 0-59-68-47-124-48v98" id="bX"/><path fill="#3a414a" d="M114-163C36-179 61-72 57 0H25l-1-190h30c1 12-1 29 2 39 6-27 23-49 58-41v29" id="bY"/><g id="A"><use transform="matrix(0.05,0,0,0.05,0,0)" xlink:href="#bX"/><use transform="matrix(0.05,0,0,0.05,12,0)" xlink:href="#bY"/><use transform="matrix(0.05,0,0,0.05,17.95,0)" xlink:href="#bE"/><use transform="matrix(0.05,0,0,0.05,27.950000000000003,0)" xlink:href="#bD"/><use transform="matrix(0.05,0,0,0.05,36.95,0)" xlink:href="#bD"/></g><path fill="#fff" d="M33 0v-248h34V0H33" id="bZ"/><path fill="#fff" d="M177-190C167-65 218 103 67 71c-23-6-38-20-44-43l32-5c15 47 100 32 89-28v-30C133-14 115 1 83 1 29 1 15-40 15-95c0-56 16-97 71-98 29-1 48 16 59 35 1-10 0-23 2-32h30zM94-22c36 0 50-32 50-73 0-42-14-75-50-75-39 0-46 34-46 75s6 73 46 73" id="ca"/><path fill="#fff" d="M117-194c89-4 53 116 60 194h-32v-121c0-31-8-49-39-48C34-167 62-67 57 0H25l-1-190h30c1 10-1 24 2 32 11-22 29-35 61-36" id="cb"/><path fill="#fff" d="M100-194c62-1 85 37 85 99 1 63-27 99-86 99S16-35 15-95c0-66 28-99 85-99zM99-20c44 1 53-31 53-75 0-43-8-75-51-75s-53 32-53 75 10 74 51 75" id="cc"/><path fill="#fff" d="M114-163C36-179 61-72 57 0H25l-1-190h30c1 12-1 29 2 39 6-27 23-49 58-41v29" id="cd"/><path fill="#fff" d="M100-194c63 0 86 42 84 106H49c0 40 14 67 53 68 26 1 43-12 49-29l28 8c-11 28-37 45-77 45C44 4 14-33 15-96c1-61 26-98 85-98zm52 81c6-60-76-77-97-28-3 7-6 17-6 28h103" id="ce"/><g id="B"><use transform="matrix(0.05,0,0,0.05,0,0)" xlink:href="#bZ"/><use transform="matrix(0.05,0,0,0.05,5,0)" xlink:href="#ca"/><use transform="matrix(0.05,0,0,0.05,15,0)" xlink:href="#cb"/><use transform="matrix(0.05,0,0,0.05,25,0)" xlink:href="#cc"/><use transform="matrix(0.05,0,0,0.05,35,0)" xlink:href="#cd"/><use transform="matrix(0.05,0,0,0.05,40.95,0)" xlink:href="#ce"/></g><path fill="#fff" d="M194 0L95-120 63-95V0H30v-248h33v124l119-124h40L117-140 236 0h-42" id="cf"/><path fill="#fff" d="M179-190L93 31C79 59 56 82 12 73V49c39 6 53-20 64-50L1-190h34L92-34l54-156h33" id="cg"/><g id="C"><use transform="matrix(0.05,0,0,0.05,0,0)" xlink:href="#cf"/><use transform="matrix(0.05,0,0,0.05,12,0)" xlink:href="#ce"/><use transform="matrix(0.05,0,0,0.05,22,0)" xlink:href="#cg"/></g><path fill="#fff" d="M30-248c87 1 191-15 191 75 0 78-77 80-158 76V0H30v-248zm33 125c57 0 124 11 124-50 0-59-68-47-124-48v98" id="ch"/><path fill="#fff" d="M135-143c-3-34-86-38-87 0 15 53 115 12 119 90S17 21 10-45l28-5c4 36 97 45 98 0-10-56-113-15-118-90-4-57 82-63 122-42 12 7 21 19 24 35" id="ci"/><g id="D"><use transform="matrix(0.05,0,0,0.05,0,0)" xlink:href="#ch"/><use transform="matrix(0.05,0,0,0.05,12,0)" xlink:href="#cd"/><use transform="matrix(0.05,0,0,0.05,17.95,0)" xlink:href="#ce"/><use transform="matrix(0.05,0,0,0.05,27.950000000000003,0)" xlink:href="#ci"/><use transform="matrix(0.05,0,0,0.05,36.95,0)" xlink:href="#ci"/></g><path fill="#3a414a" d="M177-190C167-65 218 103 67 71c-23-6-38-20-44-43l32-5c15 47 100 32 89-28v-30C133-14 115 1 83 1 29 1 15-40 15-95c0-56 16-97 71-98 29-1 48 16 59 35 1-10 0-23 2-32h30zM94-22c36 0 50-32 50-73 0-42-14-75-50-75-39 0-46 34-46 75s6 73 46 73" id="cj"/><g id="E"><use transform="matrix(0.05,0,0,0.05,0,0)" xlink:href="#bA"/><use transform="matrix(0.05,0,0,0.05,14.950000000000001,0)" xlink:href="#bE"/><use transform="matrix(0.05,0,0,0.05,24.950000000000003,0)" xlink:href="#bY"/><use transform="matrix(0.05,0,0,0.05,30.900000000000002,0)" xlink:href="#cj"/><use transform="matrix(0.05,0,0,0.05,40.900000000000006,0)" xlink:href="#bE"/></g><path fill="#3a414a" d="M232-93c-1 65-40 97-104 97C67 4 28-28 28-90v-158h33c8 89-33 224 67 224 102 0 64-133 71-224h33v155" id="ck"/><g id="F"><use transform="matrix(0.05,0,0,0.05,0,0)" xlink:href="#ck"/><use transform="matrix(0.05,0,0,0.05,12.950000000000001,0)" xlink:href="#bH"/><use transform="matrix(0.05,0,0,0.05,22.950000000000003,0)" xlink:href="#bU"/><use transform="matrix(0.05,0,0,0.05,32.95,0)" xlink:href="#bN"/><use transform="matrix(0.05,0,0,0.05,42.95,0)" xlink:href="#bI"/><use transform="matrix(0.05,0,0,0.05,47.95,0)" xlink:href="#bE"/></g><path fill="#3a414a" d="M30-248c118-7 216 8 213 122C240-48 200 0 122 0H30v-248zM63-27c89 8 146-16 146-99s-60-101-146-95v194" id="cl"/><g id="G"><use transform="matrix(0.05,0,0,0.05,0,0)" xlink:href="#cl"/><use transform="matrix(0.05,0,0,0.05,12.950000000000001,0)" xlink:href="#bQ"/><use transform="matrix(0.05,0,0,0.05,16.900000000000002,0)" xlink:href="#bD"/><use transform="matrix(0.05,0,0,0.05,25.900000000000002,0)" xlink:href="#bH"/><use transform="matrix(0.05,0,0,0.05,35.900000000000006,0)" xlink:href="#bO"/><use transform="matrix(0.05,0,0,0.05,39.85000000000001,0)" xlink:href="#bN"/><use transform="matrix(0.05,0,0,0.05,49.85000000000001,0)" xlink:href="#bW"/></g><g id="H"><use transform="matrix(0.05,0,0,0.05,0,0)" xlink:href="#bF"/><use transform="matrix(0.05,0,0,0.05,5,0)" xlink:href="#bD"/></g><path fill="#3a414a" d="M140-251c81 0 123 46 123 126C263-46 219 4 140 4 59 4 17-45 17-125s42-126 123-126zm0 227c63 0 89-41 89-101s-29-99-89-99c-61 0-89 39-89 99S79-25 140-24" id="cm"/><g id="I"><use transform="matrix(0.05,0,0,0.05,0,0)" xlink:href="#cm"/><use transform="matrix(0.05,0,0,0.05,14,0)" xlink:href="#bH"/><use transform="matrix(0.05,0,0,0.05,24,0)" xlink:href="#bE"/><use transform="matrix(0.05,0,0,0.05,34,0)" xlink:href="#bY"/><use transform="matrix(0.05,0,0,0.05,39.95,0)" xlink:href="#bN"/><use transform="matrix(0.05,0,0,0.05,49.95,0)" xlink:href="#bI"/><use transform="matrix(0.05,0,0,0.05,54.95,0)" xlink:href="#bB"/><use transform="matrix(0.05,0,0,0.05,64.95,0)" xlink:href="#bY"/></g><path fill="#fff" d="M212-179c-10-28-35-45-73-45-59 0-87 40-87 99 0 60 29 101 89 101 43 0 62-24 78-52l27 14C228-24 195 4 139 4 59 4 22-46 18-125c-6-104 99-153 187-111 19 9 31 26 39 46" id="cn"/><path fill="#fff" d="M210-169c-67 3-38 105-44 169h-31v-121c0-29-5-50-35-48C34-165 62-65 56 0H25l-1-190h30c1 10-1 24 2 32 10-44 99-50 107 0 11-21 27-35 58-36 85-2 47 119 55 194h-31v-121c0-29-5-49-35-48" id="co"/><path fill="#fff" d="M115-194c53 0 69 39 70 98 0 66-23 100-70 100C84 3 66-7 56-30L54 0H23l1-261h32v101c10-23 28-34 59-34zm-8 174c40 0 45-34 45-75 0-40-5-75-45-74-42 0-51 32-51 76 0 43 10 73 51 73" id="cp"/><path fill="#fff" d="M24-231v-30h32v30H24zM24 0v-190h32V0H24" id="cq"/><g id="J"><use transform="matrix(0.05,0,0,0.05,0,0)" xlink:href="#cn"/><use transform="matrix(0.05,0,0,0.05,12.950000000000001,0)" xlink:href="#cc"/><use transform="matrix(0.05,0,0,0.05,22.950000000000003,0)" xlink:href="#co"/><use transform="matrix(0.05,0,0,0.05,37.900000000000006,0)" xlink:href="#cp"/><use transform="matrix(0.05,0,0,0.05,47.900000000000006,0)" xlink:href="#cq"/><use transform="matrix(0.05,0,0,0.05,51.85,0)" xlink:href="#cb"/><use transform="matrix(0.05,0,0,0.05,61.85,0)" xlink:href="#ce"/></g><path fill="#fff" d="M190 0L58-211 59 0H30v-248h39L202-35l-2-213h31V0h-41" id="cr"/><path fill="#fff" d="M84 4C-5 8 30-112 23-190h32v120c0 31 7 50 39 49 72-2 45-101 50-169h31l1 190h-30c-1-10 1-25-2-33-11 22-28 36-60 37" id="cs"/><g id="K"><use transform="matrix(0.05,0,0,0.05,0,0)" xlink:href="#cr"/><use transform="matrix(0.05,0,0,0.05,12.950000000000001,0)" xlink:href="#cs"/><use transform="matrix(0.05,0,0,0.05,22.950000000000003,0)" xlink:href="#co"/><use transform="matrix(0.05,0,0,0.05,37.900000000000006,0)" xlink:href="#cp"/><use transform="matrix(0.05,0,0,0.05,47.900000000000006,0)" xlink:href="#ce"/><use transform="matrix(0.05,0,0,0.05,57.900000000000006,0)" xlink:href="#cd"/></g><path fill="#fff" d="M185-189c-5-48-123-54-124 2 14 75 158 14 163 119 3 78-121 87-175 55-17-10-28-26-33-46l33-7c5 56 141 63 141-1 0-78-155-14-162-118-5-82 145-84 179-34 5 7 8 16 11 25" id="ct"/><path fill="#fff" d="M59-47c-2 24 18 29 38 22v24C64 9 27 4 27-40v-127H5v-23h24l9-43h21v43h35v23H59v120" id="cu"/><g id="L"><use transform="matrix(0.05,0,0,0.05,0,0)" xlink:href="#ct"/><use transform="matrix(0.05,0,0,0.05,12,0)" xlink:href="#cu"/><use transform="matrix(0.05,0,0,0.05,17,0)" xlink:href="#cc"/><use transform="matrix(0.05,0,0,0.05,27,0)" xlink:href="#cd"/><use transform="matrix(0.05,0,0,0.05,32.95,0)" xlink:href="#ce"/></g><path fill="#fff" d="M140-251c81 0 123 46 123 126C263-46 219 4 140 4 59 4 17-45 17-125s42-126 123-126zm0 227c63 0 89-41 89-101s-29-99-89-99c-61 0-89 39-89 99S79-25 140-24" id="cv"/><path fill="#fff" d="M115-194c55 1 70 41 70 98S169 2 115 4C84 4 66-9 55-30l1 105H24l-1-265h31l2 30c10-21 28-34 59-34zm-8 174c40 0 45-34 45-75s-6-73-45-74c-42 0-51 32-51 76 0 43 10 73 51 73" id="cw"/><path fill="#fff" d="M141-36C126-15 110 5 73 4 37 3 15-17 15-53c-1-64 63-63 125-63 3-35-9-54-41-54-24 1-41 7-42 31l-33-3c5-37 33-52 76-52 45 0 72 20 72 64v82c-1 20 7 32 28 27v20c-31 9-61-2-59-35zM48-53c0 20 12 33 32 33 41-3 63-29 60-74-43 2-92-5-92 41" id="cx"/><g id="M"><use transform="matrix(0.05,0,0,0.05,0,0)" xlink:href="#cv"/><use transform="matrix(0.05,0,0,0.05,14,0)" xlink:href="#cw"/><use transform="matrix(0.05,0,0,0.05,24,0)" xlink:href="#ce"/><use transform="matrix(0.05,0,0,0.05,34,0)" xlink:href="#cd"/><use transform="matrix(0.05,0,0,0.05,39.95,0)" xlink:href="#cx"/><use transform="matrix(0.05,0,0,0.05,49.95,0)" xlink:href="#cu"/><use transform="matrix(0.05,0,0,0.05,54.95,0)" xlink:href="#cc"/><use transform="matrix(0.05,0,0,0.05,64.95,0)" xlink:href="#cd"/></g><path fill="#3a414a" d="M27 0v-27h64v-190l-56 39v-29l58-41h29v221h61V0H27" id="cy"/><g id="N"><use transform="matrix(0.05,0,0,0.05,0,0)" xlink:href="#cy"/><use transform="matrix(0.05,0,0,0.05,10,0)" xlink:href="#bD"/><use transform="matrix(0.05,0,0,0.05,19,0)" xlink:href="#bI"/></g><path fill="#fff" d="M266 0h-40l-56-210L115 0H75L2-248h35L96-30l15-64 43-154h32l59 218 59-218h35" id="cz"/><g id="O"><use transform="matrix(0.05,0,0,0.05,0,0)" xlink:href="#cz"/><use transform="matrix(0.05,0,0,0.05,16.3,0)" xlink:href="#cx"/><use transform="matrix(0.05,0,0,0.05,26.3,0)" xlink:href="#cq"/><use transform="matrix(0.05,0,0,0.05,30.25,0)" xlink:href="#cu"/></g><path fill="#fff" d="M101-234c-31-9-42 10-38 44h38v23H63V0H32v-167H5v-23h27c-7-52 17-82 69-68v24" id="cA"/><g id="P"><use transform="matrix(0.05,0,0,0.05,0,0)" xlink:href="#cA"/><use transform="matrix(0.05,0,0,0.05,5,0)" xlink:href="#cc"/><use transform="matrix(0.05,0,0,0.05,15,0)" xlink:href="#cd"/></g><path fill="#fff" d="M101-251c82-7 93 87 43 132L82-64C71-53 59-42 53-27h129V0H18c2-99 128-94 128-182 0-28-16-43-45-43s-46 15-49 41l-32-3c6-41 34-60 81-64" id="cB"/><path fill="#fff" d="M85-194c31 0 48 13 60 33l-1-100h32l1 261h-30c-2-10 0-23-3-31C134-8 116 4 85 4 32 4 16-35 15-94c0-66 23-100 70-100zm9 24c-40 0-46 34-46 75 0 40 6 74 45 74 42 0 51-32 51-76 0-42-9-74-50-73" id="cC"/><g id="Q"><use transform="matrix(0.05,0,0,0.05,0,0)" xlink:href="#cB"/><use transform="matrix(0.05,0,0,0.05,10,0)" xlink:href="#cb"/><use transform="matrix(0.05,0,0,0.05,20,0)" xlink:href="#cC"/></g><g id="R"><use transform="matrix(0.05,0,0,0.05,0,0)" xlink:href="#cq"/><use transform="matrix(0.05,0,0,0.05,3.95,0)" xlink:href="#cb"/><use transform="matrix(0.05,0,0,0.05,13.949999999999998,0)" xlink:href="#cw"/><use transform="matrix(0.05,0,0,0.05,23.95,0)" xlink:href="#cs"/><use transform="matrix(0.05,0,0,0.05,33.95,0)" xlink:href="#cu"/></g><path fill="#fff" d="M126-127c33 6 58 20 58 59 0 88-139 92-164 29-3-8-5-16-6-25l32-3c6 27 21 44 54 44 32 0 52-15 52-46 0-38-36-46-79-43v-28c39 1 72-4 72-42 0-27-17-43-46-43-28 0-47 15-49 41l-32-3c6-42 35-63 81-64 48-1 79 21 79 65 0 36-21 52-52 59" id="cD"/><g id="S"><use transform="matrix(0.05,0,0,0.05,0,0)" xlink:href="#cD"/><use transform="matrix(0.05,0,0,0.05,10,0)" xlink:href="#cd"/><use transform="matrix(0.05,0,0,0.05,15.949999999999998,0)" xlink:href="#cC"/></g><path fill="#fff" d="M24 0v-261h32V0H24" id="cE"/><path fill="#fff" d="M96-169c-40 0-48 33-48 73s9 75 48 75c24 0 41-14 43-38l32 2c-6 37-31 61-74 61-59 0-76-41-82-99-10-93 101-131 147-64 4 7 5 14 7 22l-32 3c-4-21-16-35-41-35" id="cF"/><g id="T"><use transform="matrix(0.05,0,0,0.05,0,0)" xlink:href="#cn"/><use transform="matrix(0.05,0,0,0.05,12.950000000000001,0)" xlink:href="#cx"/><use transform="matrix(0.05,0,0,0.05,22.950000000000003,0)" xlink:href="#cE"/><use transform="matrix(0.05,0,0,0.05,26.900000000000002,0)" xlink:href="#cF"/><use transform="matrix(0.05,0,0,0.05,35.900000000000006,0)" xlink:href="#cs"/><use transform="matrix(0.05,0,0,0.05,45.900000000000006,0)" xlink:href="#cE"/><use transform="matrix(0.05,0,0,0.05,49.85000000000001,0)" xlink:href="#cx"/><use transform="matrix(0.05,0,0,0.05,59.85,0)" xlink:href="#cu"/><use transform="matrix(0.05,0,0,0.05,64.85000000000001,0)" xlink:href="#ce"/></g><g id="U"><use transform="matrix(0.05,0,0,0.05,0,0)" xlink:href="#cd"/><use transform="matrix(0.05,0,0,0.05,5.95,0)" xlink:href="#ce"/><use transform="matrix(0.05,0,0,0.05,15.949999999999998,0)" xlink:href="#ci"/><use transform="matrix(0.05,0,0,0.05,24.95,0)" xlink:href="#cs"/><use transform="matrix(0.05,0,0,0.05,34.95,0)" xlink:href="#cE"/><use transform="matrix(0.05,0,0,0.05,38.900000000000006,0)" xlink:href="#cu"/><use transform="matrix(0.05,0,0,0.05,43.900000000000006,0)" xlink:href="#ci"/></g><path fill="#3a414a" d="M210-169c-67 3-38 105-44 169h-31v-121c0-29-5-50-35-48C34-165 62-65 56 0H25l-1-190h30c1 10-1 24 2 32 10-44 99-50 107 0 11-21 27-35 58-36 85-2 47 119 55 194h-31v-121c0-29-5-49-35-48" id="cG"/><path fill="#3a414a" d="M115-194c53 0 69 39 70 98 0 66-23 100-70 100C84 3 66-7 56-30L54 0H23l1-261h32v101c10-23 28-34 59-34zm-8 174c40 0 45-34 45-75 0-40-5-75-45-74-42 0-51 32-51 76 0 43 10 73 51 73" id="cH"/><g id="V"><use transform="matrix(0.05,0,0,0.05,0,0)" xlink:href="#bS"/><use transform="matrix(0.05,0,0,0.05,12.950000000000001,0)" xlink:href="#bC"/><use transform="matrix(0.05,0,0,0.05,22.950000000000003,0)" xlink:href="#cG"/><use transform="matrix(0.05,0,0,0.05,37.900000000000006,0)" xlink:href="#cH"/><use transform="matrix(0.05,0,0,0.05,47.900000000000006,0)" xlink:href="#bE"/><use transform="matrix(0.05,0,0,0.05,57.900000000000006,0)" xlink:href="#bY"/></g><g id="W"><use transform="matrix(0.05,0,0,0.05,0,0)" xlink:href="#ch"/><use transform="matrix(0.05,0,0,0.05,12,0)" xlink:href="#cd"/><use transform="matrix(0.05,0,0,0.05,17.95,0)" xlink:href="#cc"/><use transform="matrix(0.05,0,0,0.05,27.950000000000003,0)" xlink:href="#cF"/><use transform="matrix(0.05,0,0,0.05,36.95,0)" xlink:href="#ce"/><use transform="matrix(0.05,0,0,0.05,46.95,0)" xlink:href="#ci"/><use transform="matrix(0.05,0,0,0.05,55.95,0)" xlink:href="#ci"/></g><path fill="#fff" d="M30 0v-248h187v28H63v79h144v27H63v87h162V0H30" id="cI"/><path fill="#fff" d="M145-31C134-9 116 4 85 4 32 4 16-35 15-94c0-59 17-99 70-100 32-1 48 14 60 33 0-11-1-24 2-32h30l-1 268h-32zM93-21c41 0 51-33 51-76s-8-73-50-73c-40 0-46 35-46 75s5 74 45 74" id="cJ"/><g id="X"><use transform="matrix(0.05,0,0,0.05,0,0)" xlink:href="#cI"/><use transform="matrix(0.05,0,0,0.05,12,0)" xlink:href="#cJ"/><use transform="matrix(0.05,0,0,0.05,22,0)" xlink:href="#cs"/><use transform="matrix(0.05,0,0,0.05,32,0)" xlink:href="#cx"/><use transform="matrix(0.05,0,0,0.05,42,0)" xlink:href="#cE"/></g><g id="Y"><use transform="matrix(0.05,0,0,0.05,0,0)" xlink:href="#ct"/><use transform="matrix(0.05,0,0,0.05,12,0)" xlink:href="#cq"/><use transform="matrix(0.05,0,0,0.05,15.949999999999998,0)" xlink:href="#ca"/><use transform="matrix(0.05,0,0,0.05,25.950000000000003,0)" xlink:href="#cb"/></g><g id="Z"><use transform="matrix(0.05,0,0,0.05,0,0)" xlink:href="#cl"/><use transform="matrix(0.05,0,0,0.05,12.950000000000001,0)" xlink:href="#bQ"/><use transform="matrix(0.05,0,0,0.05,16.900000000000002,0)" xlink:href="#bD"/><use transform="matrix(0.05,0,0,0.05,25.900000000000002,0)" xlink:href="#bH"/><use transform="matrix(0.05,0,0,0.05,35.900000000000006,0)" xlink:href="#bO"/><use transform="matrix(0.05,0,0,0.05,39.85000000000001,0)" xlink:href="#bN"/><use transform="matrix(0.05,0,0,0.05,49.85000000000001,0)" xlink:href="#bW"/></g><path fill="#3a414a" d="M233-177c-1 41-23 64-60 70L243 0h-38l-65-103H63V0H30v-248c88 3 205-21 203 71zM63-129c60-2 137 13 137-47 0-61-80-42-137-45v92" id="cK"/><g id="aa"><use transform="matrix(0.05,0,0,0.05,0,0)" xlink:href="#cK"/><use transform="matrix(0.05,0,0,0.05,12.950000000000001,0)" xlink:href="#bE"/><use transform="matrix(0.05,0,0,0.05,22.950000000000003,0)" xlink:href="#bD"/><use transform="matrix(0.05,0,0,0.05,31.950000000000003,0)" xlink:href="#bC"/><use transform="matrix(0.05,0,0,0.05,41.95,0)" xlink:href="#bO"/><use transform="matrix(0.05,0,0,0.05,45.900000000000006,0)" xlink:href="#bI"/><use transform="matrix(0.05,0,0,0.05,50.900000000000006,0)" xlink:href="#bD"/></g><g id="ab"><use transform="matrix(0.05,0,0,0.05,0,0)" xlink:href="#cd"/><use transform="matrix(0.05,0,0,0.05,5.95,0)" xlink:href="#ce"/><use transform="matrix(0.05,0,0,0.05,15.949999999999998,0)" xlink:href="#ci"/><use transform="matrix(0.05,0,0,0.05,24.95,0)" xlink:href="#cs"/><use transform="matrix(0.05,0,0,0.05,34.95,0)" xlink:href="#cE"/><use transform="matrix(0.05,0,0,0.05,38.900000000000006,0)" xlink:href="#cu"/><use transform="matrix(0.05,0,0,0.05,43.900000000000006,0)" xlink:href="#ci"/></g><g id="ac"><use transform="matrix(0.05,0,0,0.05,0,0)" xlink:href="#cq"/><use transform="matrix(0.05,0,0,0.05,3.95,0)" xlink:href="#cb"/></g><path fill="#fff" d="M197 0v-115H63V0H30v-248h33v105h134v-105h34V0h-34" id="cL"/><g id="ad"><use transform="matrix(0.05,0,0,0.05,0,0)" xlink:href="#cL"/><use transform="matrix(0.05,0,0,0.05,12.950000000000001,0)" xlink:href="#cq"/><use transform="matrix(0.05,0,0,0.05,16.900000000000002,0)" xlink:href="#ci"/><use transform="matrix(0.05,0,0,0.05,25.900000000000002,0)" xlink:href="#cu"/><use transform="matrix(0.05,0,0,0.05,30.900000000000002,0)" xlink:href="#cc"/><use transform="matrix(0.05,0,0,0.05,40.900000000000006,0)" xlink:href="#cd"/><use transform="matrix(0.05,0,0,0.05,46.85000000000001,0)" xlink:href="#cg"/></g><path fill="#3a414a" d="M197 0v-115H63V0H30v-248h33v105h134v-105h34V0h-34" id="cM"/><g id="ae"><use transform="matrix(0.05,0,0,0.05,0,0)" xlink:href="#cM"/><use transform="matrix(0.05,0,0,0.05,12.950000000000001,0)" xlink:href="#bQ"/><use transform="matrix(0.05,0,0,0.05,16.900000000000002,0)" xlink:href="#bD"/><use transform="matrix(0.05,0,0,0.05,25.900000000000002,0)" xlink:href="#bI"/><use transform="matrix(0.05,0,0,0.05,30.900000000000002,0)" xlink:href="#bB"/><use transform="matrix(0.05,0,0,0.05,40.900000000000006,0)" xlink:href="#bY"/><use transform="matrix(0.05,0,0,0.05,46.85000000000001,0)" xlink:href="#bW"/></g><g id="af"><use transform="matrix(0.05,0,0,0.05,0,0)" xlink:href="#cl"/><use transform="matrix(0.05,0,0,0.05,12.950000000000001,0)" xlink:href="#bQ"/><use transform="matrix(0.05,0,0,0.05,16.900000000000002,0)" xlink:href="#bD"/><use transform="matrix(0.05,0,0,0.05,25.900000000000002,0)" xlink:href="#bH"/><use transform="matrix(0.05,0,0,0.05,35.900000000000006,0)" xlink:href="#bO"/><use transform="matrix(0.05,0,0,0.05,39.85000000000001,0)" xlink:href="#bN"/><use transform="matrix(0.05,0,0,0.05,49.85000000000001,0)" xlink:href="#bW"/></g><path fill="#fff" d="M62-99C39-31 123 0 170-40s38-139 58-208h34C234-144 253 4 115 4 49 4 18-43 31-112l26-136h34" id="cN"/><g id="ag"><use transform="matrix(0.05,0,0,0.05,0,0)" xlink:href="#cN"/><use transform="matrix(0.05,0,0,0.05,12.950000000000001,0)" xlink:href="#az"/><use transform="matrix(0.05,0,0,0.05,21.950000000000003,0)" xlink:href="#ay"/><use transform="matrix(0.05,0,0,0.05,31.950000000000003,0)" xlink:href="#au"/></g><path fill="#fff" d="M125-24c46 0 70-25 89-51l25 16C214-24 183 4 123 4 8 4-5-146 60-208c32-50 158-61 191-5 5 7 9 14 11 22l-32 10c-9-28-33-43-69-43-74 0-108 51-108 125 0 46 24 75 72 75" id="cO"/><path fill="#fff" d="M6 0l50-261h32L37 0H6" id="cP"/><g id="ah"><use transform="matrix(0.05,0,0,0.05,0,0)" xlink:href="#cO"/><use transform="matrix(0.05,0,0,0.05,12.950000000000001,0)" xlink:href="#cP"/><use transform="matrix(0.05,0,0,0.05,16.900000000000002,0)" xlink:href="#ay"/><use transform="matrix(0.05,0,0,0.05,26.900000000000002,0)" xlink:href="#at"/><use transform="matrix(0.05,0,0,0.05,36.900000000000006,0)" xlink:href="#au"/><use transform="matrix(0.05,0,0,0.05,42.85000000000001,0)" xlink:href="#az"/></g><path fill="#fff" d="M133-28C103 26-5 8 13-77c13-62 24-115 90-117 29-1 46 15 56 35l19-102h32L160 0h-30zM45-64c-2 27 10 43 35 43 54-1 69-50 69-103 0-29-15-46-42-46-53-1-58 58-62 106" id="cQ"/><g id="ai"><use transform="matrix(0.05,0,0,0.05,0,0)" xlink:href="#cQ"/><use transform="matrix(0.05,0,0,0.05,10,0)" xlink:href="#at"/><use transform="matrix(0.05,0,0,0.05,20,0)" xlink:href="#as"/><use transform="matrix(0.05,0,0,0.05,25,0)" xlink:href="#at"/></g><path d="M173 0L80-213 41 0H11l48-248h37l94 214 40-214h30L212 0h-39" id="cR"/><path d="M30-147c31-64 166-65 159 27C183-49 158 1 86 4 9 8 1-88 30-147zM88-20c53 0 68-48 68-100 0-31-11-51-44-50-52 1-68 46-68 97 0 32 13 53 44 53" id="cS"/><path d="M67-158c22-48 132-52 116 29L158 0h-32l25-140c3-38-53-32-70-12C52-117 51-52 38 0H6l36-190h30" id="cT"/><path d="M18-82l6-28h88l-6 28H18" id="cU"/><path d="M125-24c46 0 70-25 89-51l25 16C214-24 183 4 123 4 8 4-5-146 60-208c32-50 158-61 191-5 5 7 9 14 11 22l-32 10c-9-28-33-43-69-43-74 0-108 51-108 125 0 46 24 75 72 75" id="cV"/><path d="M165-48c-4 18 1 34 23 27l-3 20c-29 8-62 0-52-35h-2C116-14 99 4 63 4 30 4 8-16 8-49c0-68 71-67 138-67 10-26 0-56-31-54-26 1-42 9-47 31l-32-5c8-67 160-71 144 15-5 28-9 54-15 81zM42-50c3 52 80 24 89-6 7-12 7-24 11-38-47 1-103-4-100 44" id="cW"/><path d="M6 0l50-261h32L37 0H6" id="cX"/><path d="M44-68c0 29 11 47 38 47 30 0 42-19 51-41l28 9C148-21 126 4 82 4 31 4 10-29 12-85c3-77 74-140 146-93 12 8 15 23 18 40l-31 5c-1-22-13-36-36-36-52 0-65 49-65 101" id="cY"/><path d="M67 3c-93-2-31-127-26-193h32L48-50c-3 39 53 32 70 12 30-34 30-101 43-152h32L157 0h-30c1-10 6-24 4-33-14 20-29 37-64 36" id="cZ"/><path d="M51-54c-9 22 5 41 31 30L79-1C43 14 10-4 19-52l22-115H19l5-23h22l19-43h21l-9 43h35l-4 23H73" id="da"/><path d="M50-231l6-30h32l-6 30H50zM6 0l37-190h31L37 0H6" id="db"/><g id="aj"><use transform="matrix(0.05,0,0,0.05,0,0)" xlink:href="#cR"/><use transform="matrix(0.05,0,0,0.05,12.950000000000001,0)" xlink:href="#cS"/><use transform="matrix(0.05,0,0,0.05,22.950000000000003,0)" xlink:href="#cT"/><use transform="matrix(0.05,0,0,0.05,32.95,0)" xlink:href="#cU"/><use transform="matrix(0.05,0,0,0.05,38.900000000000006,0)" xlink:href="#cV"/><use transform="matrix(0.05,0,0,0.05,51.85,0)" xlink:href="#cW"/><use transform="matrix(0.05,0,0,0.05,61.85,0)" xlink:href="#cX"/><use transform="matrix(0.05,0,0,0.05,65.80000000000001,0)" xlink:href="#cY"/><use transform="matrix(0.05,0,0,0.05,74.80000000000001,0)" xlink:href="#cZ"/><use transform="matrix(0.05,0,0,0.05,84.80000000000001,0)" xlink:href="#cX"/><use transform="matrix(0.05,0,0,0.05,88.75000000000001,0)" xlink:href="#cW"/><use transform="matrix(0.05,0,0,0.05,98.75000000000001,0)" xlink:href="#da"/><use transform="matrix(0.05,0,0,0.05,103.75,0)" xlink:href="#db"/><use transform="matrix(0.05,0,0,0.05,107.7,0)" xlink:href="#cS"/><use transform="matrix(0.05,0,0,0.05,117.7,0)" xlink:href="#cT"/></g><path d="M14 0l48-248h34L48 0H14" id="dc"/><path d="M67-162c32-53 139-36 121 50C175-51 163 2 97 4 68 4 52-11 42-31 38 6 28 39 22 75H-9l50-265h29c-1 10 0 20-3 28zm89 36c0-26-10-43-35-43-54 0-67 50-69 103-1 29 14 45 42 46 53 0 62-58 62-106" id="dd"/><g id="ak"><use transform="matrix(0.05,0,0,0.05,0,0)" xlink:href="#dc"/><use transform="matrix(0.05,0,0,0.05,5,0)" xlink:href="#cT"/><use transform="matrix(0.05,0,0,0.05,15,0)" xlink:href="#dd"/><use transform="matrix(0.05,0,0,0.05,25,0)" xlink:href="#cZ"/><use transform="matrix(0.05,0,0,0.05,35,0)" xlink:href="#da"/></g><g id="al"><use transform="matrix(0.05,0,0,0.05,0,0)" xlink:href="#cl"/><use transform="matrix(0.05,0,0,0.05,12.950000000000001,0)" xlink:href="#bN"/><use transform="matrix(0.05,0,0,0.05,22.950000000000003,0)" xlink:href="#bI"/><use transform="matrix(0.05,0,0,0.05,27.950000000000003,0)" xlink:href="#bN"/><use transform="matrix(0.05,0,0,0.05,37.95,0)" xlink:href="#cH"/><use transform="matrix(0.05,0,0,0.05,47.95,0)" xlink:href="#bN"/><use transform="matrix(0.05,0,0,0.05,57.95,0)" xlink:href="#bD"/><use transform="matrix(0.05,0,0,0.05,66.95,0)" xlink:href="#bE"/></g><g id="am"><use transform="matrix(0.05,0,0,0.05,0,0)" xlink:href="#bM"/><use transform="matrix(0.05,0,0,0.05,12.950000000000001,0)" xlink:href="#bO"/><use transform="matrix(0.05,0,0,0.05,16.900000000000002,0)" xlink:href="#bE"/><use transform="matrix(0.05,0,0,0.05,26.900000000000002,0)" xlink:href="#bN"/><use transform="matrix(0.05,0,0,0.05,36.900000000000006,0)" xlink:href="#bY"/></g><g id="an"><use transform="matrix(0.05,0,0,0.05,0,0)" xlink:href="#cM"/><use transform="matrix(0.05,0,0,0.05,12.950000000000001,0)" xlink:href="#bQ"/><use transform="matrix(0.05,0,0,0.05,16.900000000000002,0)" xlink:href="#bD"/><use transform="matrix(0.05,0,0,0.05,25.900000000000002,0)" xlink:href="#bI"/><use transform="matrix(0.05,0,0,0.05,30.900000000000002,0)" xlink:href="#bB"/><use transform="matrix(0.05,0,0,0.05,40.900000000000006,0)" xlink:href="#bY"/><use transform="matrix(0.05,0,0,0.05,46.85000000000001,0)" xlink:href="#bW"/></g><g id="ao"><use transform="matrix(0.05,0,0,0.05,0,0)" xlink:href="#cn"/><use transform="matrix(0.05,0,0,0.05,12.950000000000001,0)" xlink:href="#cE"/><use transform="matrix(0.05,0,0,0.05,16.900000000000002,0)" xlink:href="#ce"/><use transform="matrix(0.05,0,0,0.05,26.900000000000002,0)" xlink:href="#cx"/><use transform="matrix(0.05,0,0,0.05,36.900000000000006,0)" xlink:href="#cd"/></g><g id="ap"><use transform="matrix(0.05,0,0,0.05,0,0)" xlink:href="#cO"/><use transform="matrix(0.05,0,0,0.05,12.950000000000001,0)" xlink:href="#cP"/><use transform="matrix(0.05,0,0,0.05,16.900000000000002,0)" xlink:href="#ay"/><use transform="matrix(0.05,0,0,0.05,26.900000000000002,0)" xlink:href="#at"/><use transform="matrix(0.05,0,0,0.05,36.900000000000006,0)" xlink:href="#au"/></g><g id="aq"><use transform="matrix(0.05,0,0,0.05,0,0)" xlink:href="#bL"/><use transform="matrix(0.05,0,0,0.05,5,0)" xlink:href="#aC"/><use transform="matrix(0.05,0,0,0.05,15,0)" xlink:href="#aE"/><use transform="matrix(0.05,0,0,0.05,25,0)" xlink:href="#aB"/><use transform="matrix(0.05,0,0,0.05,35,0)" xlink:href="#as"/></g></defs></g></svg>